<svg xmlns="http://www.w3.org/2000/svg" width="2000" height="2000" viewBox="0 0 2000 2000">
  <g id="Group_5" data-name="Group 5" transform="translate(4397 4056)">
    <g id="Group_2" data-name="Group 2" transform="translate(-440 1408)">
      <g id="d2e_left" data-name="d2e left" transform="translate(-3957 -5464)">
        <g id="Blank">
          <rect id="Rectangle_4" data-name="Rectangle 4" width="2000" height="2000" fill="none"/>
        </g>
        <g id="Other">
          <g id="Dare_to_enter" data-name="Dare to enter">
            <path id="Path_71" data-name="Path 71" d="M587.19,1502.91v22.61h63c-.11-.36-.21-.73-.3-1.09s-.24-.89-.35-1.33c-.16-.62-.3-1.24-.44-1.86s-.31-1.43-.44-2.15c-.08-.42-.16-.83-.22-1.24s-.13-.72-.18-1.09c-.15-1-.28-1.89-.38-2.83-.13-1.14-.23-2.28-.31-3.41,0-.71-.08-1.42-.1-2.13a71,71,0,0,1,4.11-26.26c.37-1,.76-2.07,1.18-3.09.18-.46.37-.92.57-1.37.12-.28.24-.56.37-.84.24-.55.49-1.09.75-1.63.1-.22.21-.43.31-.65l.24-.49c.39-.79.79-1.57,1.21-2.34.3-.55.6-1.1.91-1.65l1-1.63c.32-.53.65-1.07,1-1.6s.69-1.06,1-1.58a10.818,10.818,0,0,1,1-1.38c.46-.66.94-1.31,1.42-1.95a15.732,15.732,0,0,1,1-1.22c.37-.4.74-.94,1.12-1.4l.18-.21c.16-.19.32-.39.49-.58.6-.72,1.22-1.42,1.86-2.11h0V1445.6h-7.38c-.94,1.75-1.88,3.53-2.82,5.32a70,70,0,0,1-13.81,15.63c-2.61,1.7-5.33,3.74-8.11,5.92-1.15.73-2.33,1.44-3.54,2.11-10.27,5.72-20.17,12-29.9,18.51Q594.32,1497.94,587.19,1502.91Z" fill="#4d4d4d"/>
            <g id="Body_1" data-name="Body 1">
              <path id="Path_72" data-name="Path 72" d="M641.62,1498.24a157.428,157.428,0,0,1,10-16.15c.37-1,.76-2.07,1.18-3.09.18-.46.37-.92.57-1.37.12-.28.24-.56.37-.84.24-.55.49-1.09.75-1.63l.06-.15c.09-.16.17-.33.25-.5l.24-.49c.39-.79.79-1.57,1.21-2.34.3-.55.6-1.1.91-1.65l1-1.63c.32-.53.65-1.07,1-1.6s.69-1.06,1-1.58a10.818,10.818,0,0,1,1-1.38c.46-.66.94-1.31,1.42-1.95a15.732,15.732,0,0,1,1-1.22c.37-.4.74-.94,1.12-1.4l.18-.21c.16-.19.32-.39.49-.58.6-.72,1.22-1.42,1.86-2.11h0c.34-.38.69-.75,1-1.11s.87-.91,1.32-1.35l.45-.45.06-.06c.4-.4.82-.8,1.24-1.19l1.43-1.31q.72-.65,1.47-1.26l.74-.62c.45-.38.92-.75,1.38-1.12q1.23-1,2.49-1.86c.42-.31.84-.6,1.27-.89s.86-.59,1.29-.87l1.31-.83q1.95-2.4,3.89-4.88c.44-.56.88-1.13,1.31-1.7q.87-1.11,1.71-2.25,2.78-3.64,5.45-7.46h0l-1,.31c-.48.13-1,.28-1.43.43l-2.41.8c-.8.28-1.59.57-2.39.88s-1.58.62-2.37,1-1.58.66-2.36,1-1.56.72-2.34,1.1c-.61.29-1.22.6-1.83.92-.45.22-.89.46-1.34.71s-1.15.82-1.39.76h0a1.42,1.42,0,0,1-.59-.71h0a.94.94,0,0,1,.13-.74,3.611,3.611,0,0,1,.8-.88c1.51-9.52,3-19,4.54-28.52a17.548,17.548,0,0,0,.27-2.93c-5.63,11.78-10.74,23.6-16.55,35.37-.66,1.19-1.32,2.41-2,3.62h0v.16h0q-1.15,2.65-2.51,5.17c-1,1.83-2,3.6-3.14,5.32C649.12,1465.89,642.18,1482.07,641.62,1498.24Z" fill="#252728"/>
              <path id="Path_73" data-name="Path 73" d="M682.6,1443.44a63.581,63.581,0,0,1,35.6-10c2.75.09,5.53-.46,8.3-.5,3.63,0,7.56,0,7.2-5-.34-4.66-4.32-4.66-7.86-4.71h-5.56c-.93,0-1.85.06-2.77.11s-1.84.11-2.76.18c-2.45.19-4.88.47-7.3.82l-1.58.25c-.44.07-.88.14-1.32.23-1.2.21-2.4.45-3.59.7l-1.32.3h-.09c-.5.11-1,.24-1.5.37l-1.55.4q-.76.19-1.53.42h0q-2.69,3.82-5.45,7.46-.84,1.14-1.71,2.25c-.43.57-.87,1.14-1.31,1.7Q684.56,1441,682.6,1443.44Z" fill="#252728"/>
              <path id="Path_74" data-name="Path 74" d="M641.8,1505.14q2.9,1.53,5.7,3.21a71,71,0,0,1,4.11-26.26,157.369,157.369,0,0,0-10,16.15A56.785,56.785,0,0,0,641.8,1505.14Z" fill="#252728"/>
              <path id="Path_75" data-name="Path 75" d="M697.12,1559.51c.67,1.1,1.33,2.2,2,3.31,8.39-4,15-12,20.46-20-1.66,2-3.34,3.94-5.11,5.83A38,38,0,0,1,697.12,1559.51Z" fill="#252728"/>
              <path id="Path_76" data-name="Path 76" d="M641.8,1505.14c.13,1.52.3,3,.56,4.55.23.84.47,1.67.69,2.5.68,2.51,1.33,5,2,7.47.26,1,.52,2,.79,3s.51,1.91.77,2.86q.88,3.24,1.87,6.35c.22.69.45,1.37.68,2,.14.42.28.85.44,1.27.48,1.37,1,2.71,1.55,4,.18.45.38.9.58,1.34,0,.13.11.26.17.39.25.55.51,1.09.77,1.63a42.92,42.92,0,0,0,7.51,11q.74.76,1.53,1.5l.07.07.78.69c.19.17.38.34.58.5l.79.64a37.687,37.687,0,0,0,4.65,3.12c.48.27,1,.54,1.46.8l1,.51.76.35.71.32c.56.25,1.13.48,1.71.71,1.17.46,2.39.88,3.67,1.27a27.46,27.46,0,0,0,21.22-1.2c-.66-1.11-1.32-2.21-2-3.31-14.82,4.22-31-1.84-39.86-17.42-.4-.7-.78-1.4-1.16-2.1-.72-1.36-1.39-2.73-2-4.09a72.87,72.87,0,0,1-3.22-8.31c-.2-.63-.4-1.26-.58-1.89v-.18h0c-.11-.36-.21-.73-.3-1.09s-.24-.89-.35-1.33c-.16-.62-.3-1.24-.44-1.86s-.31-1.43-.44-2.15c-.08-.42-.16-.83-.22-1.24s-.13-.72-.18-1.09c-.15-1-.28-1.89-.38-2.83-.13-1.14-.23-2.28-.31-3.41,0-.71-.08-1.42-.1-2.13Q644.69,1506.67,641.8,1505.14Z" fill="#252728"/>
              <path id="Path_77" data-name="Path 77" d="M662.66,1440.21c.68-1.21,1.34-2.43,2-3.62,5.81-11.77,10.92-23.59,16.55-35.37,0-2.17-.77-4-3.68-4.35-4.69-.6-5.28,3.1-5.9,6.73-1.47,8.47-2.7,17-5,25.3-.18.65-.37,1.3-.56,1.94-.25.82-.51,1.64-.78,2.45-.32,1-.66,1.91-1,2.85-.17.46-.35.93-.54,1.4Q663.23,1438.89,662.66,1440.21Z" fill="#252728"/>
              <path id="Path_78" data-name="Path 78" d="M670.1,1338.46q7.06,1.21,14,2.87c-1.83-1.79-3.65-3.61-5.4-5.48a35.635,35.635,0,0,0-6.44,1.73C671.52,1337.84,670.8,1338.14,670.1,1338.46Z" fill="#252728"/>
              <path id="Path_79" data-name="Path 79" d="M678.68,1335.85c1.75,1.87,3.57,3.69,5.4,5.48q9.13,2.19,18,5.16C697,1338.55,689.35,1334.06,678.68,1335.85Z" fill="#252728"/>
              <path id="Path_80" data-name="Path 80" d="M677.89,1564c-26.54-8.08-28.95-31.06-35.53-54.33-.26-1.52-.43-3-.56-4.55a123.221,123.221,0,0,0-37.08-12.52c-.47.11-.94.22-1.39.29-23.76,15-40.21,44.63-23.4,68.4a104.7,104.7,0,0,0,19.79,22.55c15.41,11.21,32.67,19.05,49.82,27.1a179.812,179.812,0,0,0,32.55,7.28,17.542,17.542,0,0,0,4.66.15c-3.76-1.79-7.51-3.63-11.22-5.58-25.61-13.46-53.45-22.85-76.22-41.49-9.75-8-16.24-17.56-17.95-30.24-1.64-12.18,1.31-22.37,11.46-30.25,12.53-9.72,26.24-12,41.22-7.59,3.71,1.08,4.19,4.19,4.17,7.43,0,10.22,3.89,19.4,7.1,28.85,7.05,20.77,24.18,28.15,43.43,32.18a22.111,22.111,0,0,0,13.7-1.81c-.5-1.45-1.06-2.88-1.7-4.27-.53-.94-1.08-1.87-1.63-2.8a27.5,27.5,0,0,1-21.22,1.2Z" fill="#252728"/>
              <path id="Path_81" data-name="Path 81" d="M603.32,1492.92Z" fill="#252728"/>
              <path id="Path_82" data-name="Path 82" d="M523.9,1549.64c2,4.33,5.54,3.44,8.75,1.41,10.84-6.86,21.59-13.87,32.39-20.79,1.69-1.08,3.2-3.12,5.46-2.3,2.65,1,1.63,3.42,1.47,5.33a48.919,48.919,0,0,0,2,19c.15.48.31,1,.49,1.43,3.42,9.69,10,17.91,18.85,25.2,2.09,1.73,4.22,3.35,6.39,4.92l-.33-.29-.15-.13-.17-.15c-.45-.4-.9-.79-1.33-1.19l-.24-.21c-.73-.67-1.45-1.34-2.16-2l-.79-.76q-.82-.8-1.62-1.62l-.52-.53-.19-.2-.08-.09-.86-.9-.93-1-.29-.32c-.7-.76-1.37-1.52-2-2.3l-1.07-1.27c-.71-.86-1.4-1.73-2.09-2.61-.34-.43-.67-.87-1-1.31s-.65-.88-1-1.33h0l-1-1.37-.89-1.29a.709.709,0,0,0-.1-.14c-.32-.48-.64-1-1-1.45-.19-.28-.38-.54-.55-.81a2.126,2.126,0,0,1-.13-.19l-.18-.27-.08-.13c-.25-.39-.49-.77-.72-1.16h0c-.24-.4-.47-.81-.69-1.21a.411.411,0,0,1,0-.09c-.16-.28-.31-.56-.44-.84h0c-.05-.08-.09-.16-.13-.24a2.539,2.539,0,0,1-.18-.37,1.633,1.633,0,0,1-.11-.23v-.06h0c0-.1-.09-.2-.14-.3a.209.209,0,0,1,0-.07h0a.3.3,0,0,1,0-.08h0a.09.09,0,0,0,0-.06c-.08-.17-.15-.34-.22-.5l-.21-.49a.954.954,0,0,0-.14-.35c-.16-.39-.3-.77-.44-1.16h0a2.025,2.025,0,0,0-.14-.44c-.12-.32-.23-.64-.33-1s-.27-.88-.39-1.33l-.21-.81-.12-.52c-.12-.52-.23-1.05-.32-1.57a.282.282,0,0,1,0-.09,3.029,3.029,0,0,0-.09-.51,1.741,1.741,0,0,0-.08-.5,36.005,36.005,0,0,1-.4-5.38v-1.75c0-.52.06-1,.1-1.57s.09-.87.15-1.31a4.917,4.917,0,0,1,.1-.77c.07-.54.16-1.08.25-1.62s.16-.85.25-1.27l.06-.3c.23-1,.5-2.1.82-3.14a1.616,1.616,0,0,1,.1-.36c.15-.48.3-1,.47-1.44s.36-1,.56-1.58l.08-.2c.16-.42.33-.83.5-1.25.05-.13.11-.25.16-.38a.533.533,0,0,1,0-.11c.12-.29.25-.58.38-.87l.09-.2c.1-.23.21-.46.32-.69.19-.41.39-.82.59-1.23l.06-.12c.25-.49.5-1,.77-1.47h0c.26-.48.53-1,.8-1.44s.68-1.15,1-1.71.53-.84.81-1.26.6-.9.91-1.34l.62-.88v-.06l.1-.14.18-.25.12-.16h0c.15-.2.29-.4.44-.59l.46-.6.06-.08v-.07c.32-.41.64-.81,1-1.21l.39-.47c.12-.16.26-.32.39-.47l.79-.92.68-.76q.43-.49.9-1c.36-.39.73-.78,1.11-1.16l.2-.2c.44-.45.88-.89,1.34-1.33l1.07-1c.43-.41.87-.8,1.32-1.2h0l.87-.76c.4-.35.81-.69,1.23-1l1.18-1c.93-.73,1.87-1.44,2.83-2.12s2.18-1.51,3.3-2.22h0c-.59.08-1.16.14-1.73.16q-7.23,4.85-14.36,9.82c-19.51,13.56-38.72,27.55-59.25,39.55C525.22,1544.05,522.07,1545.77,523.9,1549.64Z" fill="#252728"/>
              <path id="Path_83" data-name="Path 83" d="M759.19,1527.84c-7.64-1.91-9.18-3.17-3.16-9.79,13.73-15.09,26.61-30.94,39.75-46.55,8-9.46,13.63-20,14.67-32.5.36-4.36,1.37-7.57,6.91-5.75,22,7.22,44.78,12.6,62.61,28.61,22,19.74,23.19,39.32,5.66,65.05-9.76,14.34-26.25,15.26-41.93,14C815.26,1536.37,786.82,1534.75,759.19,1527.84ZM1.4,1320.45v15.28l321.26,138.69c4.67,2.24,24.9,11.27,28,12.88,1.82.88,3.25,1.37,3.69,1.62,28.42,15.81,58.17,28.91,88.17,41.44,4.24,1.77,4.39,4.43,4.56,8,1.92,39.78,22.36,67.77,56.58,86.51a250.528,250.528,0,0,0,28,13.11l1.17.46a277.506,277.506,0,0,0,35.2,11c1.5.36,3,.72,4.5,1.06,24.26,5.52,48.49,10.81,69.81,23.6A109.21,109.21,0,0,1,658,1685.44c20.81,18.14,41.82,36,62.1,54.78,31.6,29.18,67.67,48.61,111.89,50.78,28,1.38,51-8,68.55-30.1,13.11-16.54,12.78-33-1.43-48.55-17.38-19-38.36-32.4-63.41-39.45-8.73-2.46-17.26-5.56-25.89-8.36,6.77-2.06,13-2.21,19.18-2.84,14.91-1.51,27.49-7.65,36.09-20.14,19.22-27.91,12.85-61.49-15.06-80.68-4.91-3.37-10-6.46-16.23-10.45,9.81,0,17.86.76,25.68-.24,14.12-1.79,26.86-6.72,35.39-19.28,19.3-28.39,15.12-57.34-11.5-78.77-13.72-11.05-29.62-18-46.44-22.32-16.63-4.26-31.5-9.42-35.39-28.65-.19-.93-1.12-1.71-1.68-2.58a90.1,90.1,0,0,0-12.11-15c-.15-.15-.3-.31-.46-.45h0c-10-9.9-21.85-17.5-34.44-24.32.86.65,1.71,1.29,2.55,2h0c10.76,8.47,19.71,18.1,25.77,28a22.78,22.78,0,0,1,3.23,6.94,96.806,96.806,0,0,1,9.17,12.06c10.77,16.8,11.18,33.8.34,49.37a413.2,413.2,0,0,1-57.55,66.68c-6.29,5.84-11.34,12.59-16.74,19.06-5.41,8-12.07,15.92-20.46,20,.55.93,1.09,1.86,1.63,2.8.63,1.4,1.19,2.83,1.69,4.27a43.066,43.066,0,0,0,8.56-5.17c7.55-5.68,14.32-12.27,19.29-20.2,5.26-8.38,12.22-10.12,21.28-8.41,28.35,5.33,56.06,12.58,81.81,25.81,10.52,5.41,20.34,11.79,26.57,22.31,17.53,29.6-.84,69.51-39.64,68.74-5.19-.11-10.37-.69-15.56-1.06-41-5.83-80.66-15.77-118-33.51a17.139,17.139,0,0,1-4.66-.16,178.733,178.733,0,0,1-32.55-7.27c5.73,2.69,11.45,5.41,17.08,8.29,54.38,27.86,113.61,43,170.66,63.86,2.06.75,4.1,1.54,6.1,2.36,1.34.55,2.67,1.11,4,1.69l2,.88a134.239,134.239,0,0,1,27.14,16.34c1.66,1.31,3.29,2.65,4.88,4a118.821,118.821,0,0,1,12.08,12.18c9.59,11.17,9.87,20.84.88,32.75-14.85,19.67-34.51,28.75-59.49,28-45.1-1.3-80.66-22-112.2-51.66-19.59-18.44-40.09-35.85-60.63-53.24a116.2,116.2,0,0,0-15.41-11c-19.87-11.91-42.27-17.7-65.07-22.64q-4.66-1-9.28-2.15a294.974,294.974,0,0,1-35.18-10.94l-1.15-.45a251.13,251.13,0,0,1-27.46-12.56c-43.28-23.08-60.76-64.47-47.26-111.4.36-1.24.78-2.48,1.12-3.72.13-.5.25-1,.34-1.5.05-.26.09-.51.12-.76.35-2.69-.87-4.81-3.62-5.45s-4.77.94-5.5,3.51c-1.71,5.94-3.26,11.94-4.69,18-1.08,4.53-2.8,6.47-7.92,4.21l-5.12-2.25-4.83-2.1-9.12-4-5-2.16-1.91-.84c-2.29-1-4.59-2-6.88-3l-1.16-.51c-1.65-.73-3.31-1.47-5-2.22l-1.24-.56c-1.82-.82-3.65-1.66-5.47-2.5l-.9-.41-1.23-.57-3.32-1.55-1.36-.64-2.15-1-.62-.3-1.6-.77-2.7-1.32-1.69-.83-2.14-1.07-2-1c-.68-.33-1.36-.68-2-1-1.32-.68-2.63-1.36-3.94-2.06h-.09l-1-.54-.79-.42-.14-.07-.39-.22-.53-.28-.19-.1c-.58-.31-1.17-.62-1.75-1a1.825,1.825,0,0,1-.27-.15l-1.2-.66c-.72-.39-1.44-.79-2.15-1.2L359,1481c-7.71-4.41-261.08-115.31-356.72-160.14Z" fill="#252728"/>
              <path id="Path_84" data-name="Path 84" d="M1.4,1189.09v11.74c11.55,5.45,366.93,178.9,378.46,184.41q10.51,5,21.05,10c10.53,5,21,10,31.49,15.2s20.83,10.48,31.07,16c8.77,4.76,10.93,10.2,8,19a63.835,63.835,0,0,0-2.22,11.12c-.57,3.92-.64,8.36,4.5,8.75,4.79.36,4.5-4,5.07-7.44,1.41-8.46,2-17.13,5.39-25.14,13.41-31.68,36.84-54.13,67.34-69.14,32.52-16,65.93-30.82,103.34-27.24,5.14.49,10.21,1.17,15.24,2,.7-.32,1.42-.62,2.14-.88a35.623,35.623,0,0,1,6.44-1.73c10.67-1.79,18.36,2.7,23.4,10.64a242.563,242.563,0,0,1,48.18,22.35c12.8,7.68,24.45,16,34.09,26.85a22.777,22.777,0,0,0-3.23-6.94c-6.06-9.89-15-19.52-25.77-28h0c-.84-.67-1.69-1.31-2.55-2-1.43-.78-2.86-1.54-4.3-2.3-10.35-5.42-20.88-10.67-31.6-15.2h0a218.418,218.418,0,0,0-23.28-8.44c-3-.87-5.92-1.67-8.9-2.36l-1-.25a127.774,127.774,0,0,0-37.87-3.2c-67.84,4.9-126.94,29.45-165.18,90-1.63,2.59-2.63,6.45-6.7,3.13-7.13-5.83-16.13-7.75-24.19-11.64C415.21,1391.89,36,1205.62,1.4,1189.09Z" fill="#252728"/>
              <path id="Path_85" data-name="Path 85" d="M641.62,1498.24c-.18.33-.37.65-.55,1a19.52,19.52,0,0,1-2-9.09c-1.7,3.45-5.41,2.85-15.72,1.15l17.22-11.18c1.19-4.78,2.69-9.48,3-13.89l-.5.33a73.06,73.06,0,0,1-8.11,5.92c-10.21,8-21.21,17.94-30.27,20.15a123.224,123.224,0,0,1,37.08,12.52A58.889,58.889,0,0,1,641.62,1498.24Z" fill="#252728"/>
              <path id="Path_86" data-name="Path 86" d="M601.55,1493.09a12.929,12.929,0,0,0,1.73-.16h0l.67-.43.72.13c9.07-2.21,20.07-12.13,30.28-20.15-1.15.73-2.33,1.44-3.54,2.11C621.18,1480.3,611.28,1486.57,601.55,1493.09Z" fill="#252728"/>
              <path id="Path_87" data-name="Path 87" d="M604,1492.49c-.22.13-.44.28-.66.42.45-.07.92-.18,1.39-.29Z" fill="#252728"/>
              <path id="Path_88" data-name="Path 88" d="M639.07,1490.15a19.359,19.359,0,0,0,2,9.08l.55-1c.56-16.17,7.5-32.35,15.29-47.32a70,70,0,0,1-13.81,15.63l.5-.32c-.34,4.4-1.84,9.11-3,13.89l.29-.19C640.36,1485,640,1488.2,639.07,1490.15Z" fill="#252728"/>
              <path id="Path_89" data-name="Path 89" d="M656.91,1450.92c1.12-1.72,2.16-3.49,3.14-5.32q1.35-2.52,2.51-5.17c-.94,1.71-1.89,3.42-2.83,5.17S657.85,1449.13,656.91,1450.92Z" fill="#8d8d90"/>
              <path id="Path_90" data-name="Path 90" d="M635,1472.47a72.376,72.376,0,0,0,8.11-5.92C640.49,1468.25,637.77,1470.29,635,1472.47Z" fill="#8d8d90"/>
              <path id="Path_91" data-name="Path 91" d="M599.72,1583.86c14.43,12.45,31.91,21.31,49.82,27.1C632.39,1602.91,615.13,1595.07,599.72,1583.86Z" fill="#8d8d90"/>
              <path id="Path_92" data-name="Path 92" d="M581.36,1541.09c1.7,12.67,8.2,22.26,17.95,30.24,22.77,18.63,50.6,28,76.22,41.49,3.71,2,7.46,3.79,11.22,5.58,37.33,17.74,77,27.68,118,33.51,5.19.37,10.37.95,15.56,1.06,38.8.77,57.17-39.14,39.64-68.74-6.23-10.52-16.05-16.9-26.57-22.31-25.75-13.23-53.46-20.48-81.81-25.81-9.06-1.71-16,0-21.28,8.41-5,7.93-11.74,14.52-19.29,20.2a43.069,43.069,0,0,1-8.56,5.17,22.1,22.1,0,0,1-13.69,1.82c-19.25-4-36.38-11.42-43.44-32.19-3.21-9.44-7.14-18.62-7.09-28.84,0-3.25-.46-6.35-4.17-7.44-15-4.38-28.7-2.13-41.22,7.59C582.66,1518.72,579.72,1528.91,581.36,1541.09Z" fill="#8d8d90"/>
              <path id="Path_93" data-name="Path 93" d="M662.58,1440.39a.473.473,0,0,1,0-.1.14.14,0,0,0,0-.06v.06Z" fill="#8d8d90"/>
              <path id="Path_94" data-name="Path 94" d="M1.4,1200.83v119.62l.87.41c95.64,44.83,349,155.73,356.72,160.14l2.14,1.21c.71.41,1.43.81,2.15,1.2l1.2.66a1.812,1.812,0,0,0,.27.15c.58.33,1.17.64,1.75,1l.19.1.53.28.39.22.14.07.79.42,1,.54h.09c1.31.7,2.62,1.38,3.94,2.06.67.36,1.35.71,2,1l2,1,2.14,1.07,1.69.83,2.7,1.32,1.6.77.62.3,2.15,1,1.36.64,3.32,1.55,1.23.57.9.41c1.82.84,3.65,1.68,5.47,2.5l1.24.56,6.12,2.73c2.29,1,4.59,2,6.88,3l1.91.84,5,2.16,9.12,4,4.83,2.1,5.12,2.25c5.12,2.26,6.84.32,7.92-4.21q2.145-9,4.69-18c.73-2.57,2.65-4.17,5.5-3.51s4,2.76,3.62,5.45a4.135,4.135,0,0,1-.12.76c-.09.5-.21,1-.34,1.5-.34,1.24-.76,2.48-1.12,3.72-13.5,46.93,4,88.32,47.26,111.4a251.082,251.082,0,0,0,27.46,12.56l38.05-77a48.919,48.919,0,0,1-2-19c.16-1.91,1.18-4.38-1.47-5.33-2.26-.82-3.77,1.22-5.46,2.3-10.8,6.92-21.55,13.93-32.39,20.79-3.21,2-6.71,2.92-8.75-1.41-1.83-3.87,1.32-5.59,4-7.18,20.53-12,39.74-26,59.25-39.55q7.14-5,14.36-9.82c9.73-6.52,19.63-12.79,29.9-18.51,1.21-.67,2.39-1.38,3.54-2.11,2.78-2.18,5.5-4.22,8.11-5.92a70,70,0,0,0,13.81-15.63c.94-1.79,1.88-3.57,2.82-5.32s1.89-3.46,2.83-5.17h0v-.16h0q.57-1.32,1.11-2.67c.19-.47.37-.94.54-1.4.35-.94.69-1.89,1-2.85.27-.81.53-1.63.78-2.45.19-.64.38-1.29.56-1.94,2.27-8.27,3.5-16.83,5-25.3.62-3.63,1.21-7.33,5.9-6.73,2.91.37,3.66,2.18,3.68,4.35a17.548,17.548,0,0,1-.27,2.93c-1.54,9.5-3,19-4.54,28.52a3.611,3.611,0,0,0-.8.88c-.05.25-.09.5-.13.74h0a1.419,1.419,0,0,0,.59.71h0c.46-.26.93-.52,1.39-.76s.89-.49,1.34-.71c.61-.32,1.22-.63,1.83-.92.78-.38,1.56-.75,2.34-1.1s1.57-.7,2.36-1,1.58-.65,2.37-1,1.59-.6,2.39-.88l2.41-.8c.47-.15,1-.3,1.43-.43l1-.31q.76-.23,1.53-.42c.52-.15,1-.28,1.55-.4s1-.26,1.5-.37h.09l1.32-.3c1.19-.25,2.39-.49,3.59-.7.44-.09.88-.16,1.32-.23l1.58-.25c2.42-.35,4.85-.63,7.3-.82q1.38-.11,2.76-.18c.92,0,1.85-.09,2.77-.11,1.85-.06,3.7-.08,5.56,0,3.54,0,7.52,0,7.86,4.71.36,5-3.57,4.94-7.2,5-2.77,0-5.55.59-8.3.5a63.58,63.58,0,0,0-35.6,10l-1.31.83q-.64.42-1.29.87l-1.27.89q-1.26.9-2.49,1.86c-.46.37-.93.74-1.38,1.12l-.74.62q-.75.61-1.47,1.26l-1.43,1.31c-.42.39-.83.79-1.24,1.19l-.06.06-.45.45q-.68.66-1.32,1.35a14.73,14.73,0,0,0-1,1.11h0c-.64.69-1.26,1.39-1.86,2.11-.17.19-.33.39-.49.58l-.18.21c-.38.46-.76.93-1.12,1.4s-.64.81-1,1.22c-.48.64-1,1.29-1.42,1.95-.32.45-.64.91-1,1.38a10.656,10.656,0,0,0-1,1.58c-.3.58-.67,1.07-1,1.6l-1,1.63c-.31.55-.61,1.1-.91,1.65-.42.77-.82,1.55-1.21,2.34l-.24.49c-.1.22-.21.43-.31.65-.26.54-.51,1.08-.75,1.63-.13.28-.25.56-.37.84-.2.45-.39.91-.57,1.37-.42,1-.81,2-1.18,3.09a71,71,0,0,0-4.11,26.26c0,.71.06,1.42.1,2.13.08,1.13.18,2.27.31,3.41.1.94.23,1.88.38,2.83.05.37.11.73.18,1.09s.14.82.22,1.24c.13.72.28,1.43.44,2.15s.28,1.24.44,1.86c.11.44.22.89.35,1.33s.19.73.3,1.09h0v.18c.18.63.38,1.26.58,1.89a72.864,72.864,0,0,0,3.22,8.31c.63,1.36,1.3,2.73,2,4.09.38.7.76,1.4,1.16,2.1,8.86,15.58,25,21.64,39.86,17.42a38,38,0,0,0,17.34-10.82c1.77-1.89,3.45-3.85,5.11-5.83,5.4-6.47,10.45-13.22,16.74-19.06a413.189,413.189,0,0,0,57.55-66.68c10.84-15.57,10.43-32.57-.34-49.37a96.821,96.821,0,0,0-9.17-12.06c-9.64-10.82-21.29-19.17-34.09-26.85a242.556,242.556,0,0,0-48.18-22.35q-8.88-3-18-5.16-6.92-1.66-14-2.87c-5-.86-10.1-1.54-15.24-2-37.41-3.58-70.82,11.24-103.34,27.24-30.5,15-53.93,37.46-67.34,69.14-3.39,8-4,16.68-5.39,25.14-.57,3.43-.28,7.8-5.07,7.44-5.14-.39-5.07-4.83-4.5-8.75a63.841,63.841,0,0,1,2.22-11.12c3-8.83.8-14.27-8-19q-15.36-8.34-31.07-16c-10.45-5.13-21-10.19-31.49-15.2q-10.53-5-21.05-10C368.33,1379.73,13,1206.28,1.4,1200.83Z" fill="#8d8d90"/>
              <path id="Path_95" data-name="Path 95" d="M535.9,1629.31l1.15.45a294.978,294.978,0,0,0,35.18,10.94q4.62,1.14,9.28,2.15c22.8,4.94,45.2,10.73,65.07,22.64a116.184,116.184,0,0,1,15.41,11c20.54,17.39,41,34.8,60.63,53.24,31.54,29.69,67.1,50.36,112.2,51.66,25,.72,44.64-8.36,59.49-28,9-11.91,8.71-21.58-.88-32.75a118.805,118.805,0,0,0-12.08-12.18c-1.59-1.39-3.22-2.73-4.88-4a134.236,134.236,0,0,0-27.14-16.34l-2-.88c-1.31-.58-2.64-1.14-4-1.69-2-.82-4-1.61-6.1-2.36-57-20.86-116.28-36-170.66-63.86-5.63-2.88-11.35-5.6-17.08-8.29-1-.32-2-.65-3-1l-1.15-.4h0l-2.55-.92c-1.11-.41-2.22-.83-3.32-1.27q-3.31-1.29-6.57-2.76c-.8-.35-1.61-.72-2.4-1.1l-.17-.08h-.11l-.15-.07h-.09l-.28-.13-.2-.09c-1-.48-2-1-3.06-1.5s-2.12-1.08-3.17-1.65c-.53-.27-1.05-.55-1.57-.85s-1-.58-1.57-.88q-1.49-.83-2.94-1.71l-.41-.25h0c-.41-.24-.81-.49-1.22-.75l-.48-.3h-.06c-.62-.38-1.24-.77-1.84-1.17-.1,0-.19-.12-.29-.18l-.35-.23c-.5-.33-1-.66-1.49-1l-.57-.39c-1.09-.74-2.16-1.5-3.23-2.28-.67-.49-1.34-1-2-1.5l-.76-.59c-.3-.22-.59-.45-.88-.68l-.88-.71-.29-.23-.67-.55q-1-.86-2.07-1.74h0c-2.17-1.57-4.3-3.19-6.39-4.92-8.84-7.29-15.43-15.51-18.85-25.2-.18-.47-.34-1-.49-1.43Z" fill="#8d8d90"/>
              <path id="Path_96" data-name="Path 96" d="M366.69,1485.27l.92.5-.39-.22Z" fill="#8d8d90"/>
              <path id="Path_97" data-name="Path 97" d="M1.4,1320.45a4,4,0,0,0,.86.73c19.91,13.74,348.49,155.1,357.72,160.39.38.22.76.44,1.15.64L359,1481c-7.71-4.41-261.08-115.31-356.72-160.14Z" fill="#8d8d90"/>
              <path id="Path_98" data-name="Path 98" d="M695,1427.14l-1,.31q.49-.17,1-.3Z" fill="#8d8d90"/>
              <path id="Path_99" data-name="Path 99" d="M675.6,1433.55a3.609,3.609,0,0,1,.8-.88c1.51-9.52,3-19,4.54-28.52C679.42,1413.5,677.22,1424,675.6,1433.55Z" fill="#8d8d90"/>
              <path id="Path_100" data-name="Path 100" d="M675.12,1436.4s.9-1.34.92-1.34h.06a1.42,1.42,0,0,1-.59-.71C675.35,1435,675.23,1435.71,675.12,1436.4Z" fill="#8d8d90"/>
              <path id="Path_101" data-name="Path 101" d="M695,1427.14h0l1.54-.43Q695.74,1426.92,695,1427.14Z" fill="#8d8d90"/>
              <path id="Path_102" data-name="Path 102" d="M759.19,1527.84c27.63,6.91,56.07,8.53,84.51,13.12,15.68,1.21,32.17.29,41.93-14,17.53-25.73,16.33-45.31-5.66-65.05-17.83-16-40.65-21.39-62.61-28.61-5.54-1.82-6.55,1.39-6.91,5.75-1,12.51-6.72,23-14.67,32.5-13.14,15.61-26,31.46-39.75,46.55C750,1524.67,751.55,1525.93,759.19,1527.84Z" fill="#8d8d90"/>
            </g>
            <path id="Path_103" data-name="Path 103" d="M1709.41,927.21l.13.11h0Z" fill="#d8d8d8"/>
            <path id="Path_104" data-name="Path 104" d="M1852.31,640.15q-80.36-35.79-160.69-71.6c-37.2-16.63-74.28-33.5-111.48-50.12-11.42-5.1-23.87-4.09-36-4.61-7-.29-12.34-1.66-14.58-9.09-2.57-8.51-9-12.89-16.93-16.6-112.94-52.66-227.26-102.44-339.12-157.37-113.18-55.59-226.32-111.27-337-171.62-43-23.44-86.17-46.61-129-70.44-9-5-12.73-3.88-17.72,5.4-14,26-28.93,51.59-45.71,76l-1,3.47c19.22,14.93,39,29.23,55.11,47.56L696,224.8c-13.28-6.88-26.65-13.61-39.84-20.67-19.33-10.34-19.59-10.62-30.35,8.34C570.58,309.87,517.34,408.33,467,508.33c-9.53,18.92-17.33,38.86-29.87,56.27l-.42,5.47c8.87,5.19,16.18,12.27,23.47,19.34,2.35,2.28,5.23,5.06,3.2,8.81-2.16,4-5.86,2.33-9.09,1.52-1.87-.46-3.64-1.41-5.53-1.8-24-5-24.68-4.08-35.17,18-34.55,72.68-67.66,146-98.74,220.17-12.5,29.83-22.24,60.76-37,89.67.86,3.52,4.17,3.6,6.74,4.71q69.255,30,138.5,60.19c11.72,5.15,23.12,10.09,35.8,2.89,3.43-1.95,6.42-.41,9.57,1.16,15.16,7.53,30.71,14.34,45.57,22.41,41.68,22.64,83.36,45.31,124.47,68.95,15.51,8.92,35.28,11.74,46.92,25.13,14.41,16.56,32.89,24.56,51.51,33.79,10.55,5.23,23.55,6.57,31,17.27,4.95-1.66,9.38-.28,13.88,1.83q41,19.15,82.08,38.14c3.51,1.63,7,3.4,8.2,7.5,5.56-.33,10.31,1.82,15.22,4.17,74.3,35.46,148.85,70.4,223,106.22q104,50.26,206.17,104.2c34.66,18.39,69.45,36.54,104,55.21,11.17,6,18.91,6.53,25.18-6.89,7.78-16.64,16.25-33.18,26.48-48.42,8-12,6.67-20-4.4-27.64l-2.22-2.61c-17.55-4.42-25.41-20.26-38-30.88,8.22-2.44,13.39,2.4,18.94,6,11.4,3.87,23.24,6.86,34.14,11.88,9.78,4.5,14.75,2.25,19.56-6.89,34-64.65,69-128.8,102.45-193.73,33-64.05,64.49-128.84,96.71-193.28,5.37-10.73,6.2-19.58-8.14-23.29-12.6-6.88-23.69-15.63-34.56-26.81,8.82-3,13.3,3.28,19,5.44l3,4.17,3.45,3.27c7-6.39,12.38,1,18.49,2.2s12.46,4.48,16.8-3c4.16-7.17,4.13-13.68-3.74-18.49l-4-3.26c-9.63-2.15-15.29-9.08-20.77-16.57,4.39-4.55,6.79.4,9.85,1.46,6.06-5.37,11.72-1.24,17.66.39,10.82,3,19.65,2.59,23.92-10.93,3.62-11.45,9.7-22.15,14.65-33.2,28.16-62.73,56.72-125.3,84.13-188.36C1844.52,667.38,1854.4,655.54,1852.31,640.15Z" fill="#d8d8d8"/>
            <path id="Path_105" data-name="Path 105" d="M1465.33,1393.81l.12.14h.06Z" fill="#d8d8d8"/>
            <path id="Path_106" data-name="Path 106" d="M863.9,1202.21q-41-19.08-82.08-38.14c-4.5-2.11-8.93-3.49-13.88-1.83Q726,1247,684.08,1331.74c39.6,11.37,66.63,22.93,96.46,46.55.48.7,6.79,4.58,7.19,5.3,29.89-60.39,54.48-113.49,84.37-173.88C870.86,1205.61,867.41,1203.84,863.9,1202.21Z" fill="#666"/>
            <path id="Path_107" data-name="Path 107" d="M579.93,1561.31a37.656,37.656,0,0,1-4.76-9.07q-23.7,48.1-47.32,96.25c-17.19,35.08-42.48,67.9-36.13,111,1.29,8.71,2.88,14.14,11,17.84,20.31,9.21,40.6,18.56,60.42,28.76,8.71,4.48,12.6,2.63,16.75-5.77,30.28-61.31,58.63-118.62,89-179.92C636.11,1604.63,600.11,1592.61,579.93,1561.31Z" fill="#666"/>
            <path id="Path_108" data-name="Path 108" d="M1852.31,640.15q-80.36-35.79-160.69-71.6c-37.2-16.63-74.28-33.5-111.48-50.12-11.42-5.1-23.87-4.09-36-4.61-7-.29-12.34-1.66-14.58-9.09-2.57-8.51-9-12.89-16.93-16.6-112.94-52.66-227.26-102.44-339.12-157.37-113.18-55.59-226.32-111.27-337-171.62-43-23.44-86.17-46.61-129-70.44-9-5-12.73-3.88-17.72,5.4-14,26-28.93,51.59-45.71,76-15.14-19.57-12.74-37.6,2.14-57.15,11.68-15.35,20-33.26,29.57-50.13,4.21-7.39,8.26-10.16,17.2-5.13C953.37,204.31,1222.32,334,1495.35,455.58c10.1,4.5,19.26,9.29,22.54,20.69,1.48,5.17,4.65,6.71,9.88,5.74,17.18-3.18,32.41,2.54,47.69,9.47,82,37.16,163.83,74.59,246.36,110.49C1840.23,610,1848.67,622.28,1852.31,640.15Z" fill="#666"/>
            <path id="Path_109" data-name="Path 109" d="M643.17,173.58c19.22,14.93,39,29.23,55.11,47.56L696,224.8c-13.28-6.88-26.65-13.61-39.84-20.67-19.33-10.34-19.59-10.62-30.35,8.34C570.58,309.87,517.34,408.33,467,508.33c-9.53,18.92-17.33,38.86-29.87,56.27-12-15.52-14.5-29.46-4.35-49.46C491.12,400,552.57,286.56,615.2,173.68c4.87-8.77,9.21-11.34,17.66-5.39C636,170.49,639.71,171.84,643.17,173.58Z" fill="#666"/>
            <path id="Path_110" data-name="Path 110" d="M436.69,570.07c8.87,5.19,16.18,12.27,23.47,19.34,2.35,2.28,5.23,5.06,3.2,8.81-2.16,4-5.86,2.33-9.09,1.52-1.87-.46-3.64-1.41-5.53-1.8-24-5-24.68-4.08-35.17,18-34.55,72.68-67.66,146-98.74,220.17-12.5,29.83-22.24,60.76-37,89.67-13.8-16.63-13.22-33.34-5.06-53.42,40.11-98.63,83.43-195.8,129.14-292,6.77-14.25,13.93-18.09,27.63-11.47C431.63,569.86,434.29,569.7,436.69,570.07Z" fill="#666"/>
            <path id="Path_111" data-name="Path 111" d="M1465.51,1394c-17.59-4.4-25.45-20.27-38-30.9,8.22-2.44,13.39,2.4,18.94,6C1450.5,1379.11,1460,1385,1465.51,1394Z" fill="#a6a6a6"/>
            <path id="Path_112" data-name="Path 112" d="M1691.12,963.81c-12.6-6.88-23.69-15.63-34.56-26.81,8.82-3,13.3,3.28,19,5.44l3,4.17,3.45,3.27C1685.37,954.33,1691.72,956.83,1691.12,963.81Z" fill="#a6a6a6"/>
            <path id="Path_113" data-name="Path 113" d="M1709.59,927.33c-9.66-2.13-15.33-9.08-20.82-16.58,4.39-4.55,6.79.4,9.85,1.46C1702.51,917.09,1708.44,920.49,1709.59,927.33Z" fill="#a6a6a6"/>
            <path id="Path_114" data-name="Path 114" d="M1713.59,930.58l-4.18-3.37Z" fill="#a6a6a6"/>
            <path id="Path_115" data-name="Path 115" d="M1467.67,1396.56l-2.34-2.75Z" fill="#a6a6a6"/>
            <path id="Path_116" data-name="Path 116" d="M1678.59,946.61l-3-4.17Z" fill="#fefefe"/>
            <path id="Path_117" data-name="Path 117" d="M782.57,1164.83a14.1,14.1,0,0,0-20,5.75L683,1331.66c12,2.39,22,6.61,33.29,10.93L798.77,1172Z" fill="#4d4d4d"/>
            <path id="Path_118" data-name="Path 118" d="M499.3,1775.42h.09l6.35,2.79L568,1649.44l4.22-8.74,27.48-56.85h0l-.33-.29-.15-.13-.17-.15c-.45-.4-.9-.79-1.33-1.19l-.24-.21c-.73-.67-1.45-1.34-2.16-2l-.79-.76q-.82-.8-1.62-1.62l-.52-.53-.19-.2-.08-.09-.86-.9-.93-1-.29-.32c-.7-.76-1.37-1.52-2-2.3l-1.07-1.27c-.71-.86-1.4-1.73-2.09-2.61-.34-.43-.67-.87-1-1.31s-.65-.88-1-1.33h0l-1-1.37-.89-1.29a.709.709,0,0,0-.1-.14c-.32-.48-.64-1-1-1.45-.19-.28-.38-.54-.55-.81a2.139,2.139,0,0,1-.13-.19l-.18-.27-.08-.13c-.25-.39-.49-.77-.72-1.16h0c-.24-.4-.47-.81-.69-1.21a.414.414,0,0,1,0-.09c-.16-.28-.31-.56-.44-.84h0c-.05-.1-.1-.19-.14-.29s-.2-.39-.29-.59h0c0-.1-.09-.2-.14-.3a.21.21,0,0,1,0-.07h0a.3.3,0,0,1,0-.08h0a.09.09,0,0,0,0-.06c-.43-1-.82-2-1.16-3-.11-.33-.22-.66-.32-1h0l-.73,1.47-38.05,77-4.26,8.63L496,1710C483.18,1735.65,473.92,1762.15,499.3,1775.42Z" fill="#4d4d4d"/>
            <path id="Path_119" data-name="Path 119" d="M603.28,1492.93Z" fill="#4d4d4d"/>
          </g>
        </g>
      </g>
      <text id="DARE_TO_ENTER-2" data-name="DARE TO
ENTER" transform="matrix(0.914, 0.407, -0.407, 0.914, -3307, -4984)" fill="#ea3f3e" font-size="231" font-family="MVBoli, MV Boli"><tspan x="0" y="0">DARE TO</tspan><tspan x="0" y="372">ENTER</tspan></text>
    </g>
  </g>
</svg>
