<svg xmlns="http://www.w3.org/2000/svg" xmlns:xlink="http://www.w3.org/1999/xlink" width="720" height="512" viewBox="0 0 720 512">
  <defs>
    <clipPath id="clip-path">
      <rect id="received_631217278725987" width="720" height="512" transform="translate(-780 -4500)" fill="#ea3f3e"/>
    </clipPath>
  </defs>
  <g id="Mask_Group_1" data-name="Mask Group 1" transform="translate(780 4500)" clip-path="url(#clip-path)">
    <g id="Logo" transform="translate(-676 -4500)">
      <g id="Blank">
        <rect id="Rectangle_3" data-name="Rectangle 3" width="512" height="512" fill="none"/>
      </g>
      <g id="Logo-2" data-name="Logo">
        <g id="Logo-3" data-name="Logo">
          <path id="Path_11" data-name="Path 11" d="M271.831,211.2c24.064.271,46.461,6.38,66.47,20.48,10.68,7.534,19.766,16.719,26.012,28.552,3.005,5.693,4.214,11.96,5.261,18.3,1.331,8.072,1.349,16.174,1.418,24.32.041,5.187,1.106,10.363,1.708,15.544.947,8.136,1.777,16.289,2.872,24.4a159.6,159.6,0,0,1,1.408,20.813c.015,3.546-.384,7.1-.676,10.639-.512,6.228-1.234,12.4-3.732,18.225-5.12,11.927-14.684,17.981-26.273,21.56-13.356,4.127-27.049,6.863-40.5,10.547a105.287,105.287,0,0,1-34.22,3.753c-16.719-.991-33.49-2.176-49.664-7.322-8.791-2.8-17.016-6.753-24.095-12.951-4.608-4.042-7.6-9.331-10.685-14.559-4.227-7.148-5.824-15.224-7.936-23.122-.548-2.028-1.226-4.019-1.7-6.062-.456-1.969-1.467-2.56-3.387-2.127-5.937,1.349-11.845,2.88-17.92,3.53-2.816.3-5.632.612-8.448.658a10.079,10.079,0,0,1-9.252-5.158c-4.705-7.757-7.168-16.384-9.065-25.208a26.718,26.718,0,0,1-.512-8.863c.986-8.22,6.892-12.913,14.8-11.233a56.171,56.171,0,0,1,21.051,9.472c1.974,1.411,3.927,2.854,5.873,4.308.561.42,1.121.684,1.741.256.568-.4.415-1.044.325-1.605-1.536-9.587-1.946-19.3-3.238-28.928-.545-4.06.044-8.136.494-12.18,2.5-22.5,14.362-39.281,31.209-52.7,16.463-13.112,35.448-20.024,56.041-22.495A115.294,115.294,0,0,1,271.831,211.2Z" fill="#1a1a1a"/>
          <path id="Path_12" data-name="Path 12" d="M271.78,211.343c24.064.274,46.461,6.38,66.468,20.48,10.68,7.537,19.768,16.73,26.015,28.562,3.005,5.693,4.214,11.96,5.261,18.3,1.331,8.074,1.349,16.177,1.416,24.32.044,5.187,1.108,10.363,1.71,15.544.947,8.136,1.774,16.289,2.872,24.4a160.046,160.046,0,0,1,1.408,20.813c0,3.546-.384,7.1-.678,10.642-.512,6.226-1.234,12.4-3.73,18.222-5.12,11.93-14.684,17.984-26.273,21.563-13.356,4.124-27.049,6.861-40.5,10.547a105.292,105.292,0,0,1-34.222,3.75c-16.717-.988-33.487-2.176-49.664-7.322-8.791-2.8-17.016-6.753-24.095-12.951-4.608-4.042-7.6-9.331-10.688-14.559-4.224-7.145-5.821-15.224-7.949-23.122-.545-2.025-1.224-4.017-1.7-6.062-.456-1.969-1.467-2.56-3.387-2.127-5.937,1.349-11.845,2.88-17.92,3.53-2.816.3-5.632.612-8.448.658a10.081,10.081,0,0,1-9.252-5.156c-4.705-7.759-7.168-16.384-9.065-25.211a26.652,26.652,0,0,1-.512-8.863c.986-8.22,6.892-12.91,14.8-11.231a56.108,56.108,0,0,1,21.051,9.472c1.974,1.411,3.927,2.854,5.873,4.308.558.42,1.119.686,1.741.256.566-.4.415-1.042.325-1.605-1.536-9.587-1.946-19.3-3.238-28.928-.548-4.058.044-8.136.494-12.18,2.5-22.5,14.362-39.278,31.206-52.7,16.466-13.112,35.451-20.022,56.044-22.492a114.826,114.826,0,0,1,14.641-.865Z" fill="none" stroke="#ea3f3e" stroke-miterlimit="10" stroke-width="2.56"/>
          <path id="Path_13" data-name="Path 13" d="M314.258,361.674l-.169-.212.2.179Z" fill="#494b4d"/>
          <path id="Path_14" data-name="Path 14" d="M402.573,316.508c.015,5.417.118,10.017-.768,14.638-1.375,7.222-6.065,10.122-13.135,11.494-3.84.745-7.767.282-11.643.563-1.024.074-1.221-.356-1.331-1.242q-1.7-13.788-3.5-27.566a1.684,1.684,0,0,1,.461-1.59c4.05-3.881,7.281-8.494,11.52-12.206a16.286,16.286,0,0,1,6.866-3.981,7.439,7.439,0,0,1,9.037,4.864C401.684,306.639,403.156,311.821,402.573,316.508Z" fill="#1a1a1a" stroke="#ea3f3e" stroke-miterlimit="10" stroke-width="2.56"/>
          <g id="Horns_1" data-name="Horns 1">
            <path id="Path_15" data-name="Path 15" d="M135.849,169.9a3.33,3.33,0,0,0,2.3.335c4.2-.192,6.623,1.562,7.37,5.811a106.6,106.6,0,0,0,3.277,14.428c2.378,7.373,4.608,14.82,8.6,21.5,4.352,7.268,11.08,11.295,18.688,13.878,16.586,5.632,33.7,5.179,50.824,4.375,1.907-.09,3.817-.151,5.719-.3a2.461,2.461,0,0,1,3.016,2.245c.292,1.492.814,2.936,1.211,4.408.7,2.606.389,3.164-2.145,3.884-2.662.768-2.545.732-1.953,3.53.5,2.371.125,5.007,3.3,5.934,1.024.3,1.165,1.887,1.1,3.1a45.983,45.983,0,0,1-2.906,14.464c-.858,2.161-1.9,4.283-4.311,5.082-.735.256-.832.62-.53,1.3a3.993,3.993,0,0,1-.768,4.255,43.28,43.28,0,0,1-4.114,4.979c-1.482,1.411-1.449,2.532-.312,4.1,1.792,2.452,1.654,2.962-1.3,3.607a4.14,4.14,0,0,0-3.054,2.575,49.1,49.1,0,0,1-6.106,8.9c-2.7,3.292-6.336,4.009-10.173,2.258-3.123-1.426-5.8-3.61-8.681-5.45-.44-.284-.9-.986-1.452-.438-.691.691.12,1.19.484,1.62,1.58,1.864,3.272,3.625,4.81,5.524s1.421,3.395-.33,5.146a10.785,10.785,0,0,1-5.243,2.706c-3.018.753-6.144,1.024-9.1,2.094-1.357.486-2.468-.438-3.584-.955a93.491,93.491,0,0,1-21.133-13.238c-7.13-5.972-14.423-11.756-21.084-18.278-6.124-6-6.011-6.126-3.351-14.351,1.024-3.174,2.1-6.331,3.133-9.5.146-.448.512-1.024-.044-1.382-.4-.256-.786.159-1.132.394-3.474,2.376-7,4.677-10.386,7.168-1.17.863-1.792.745-2.606-.307a55.238,55.238,0,0,0-8.924-8.678,10.949,10.949,0,0,1-3.884-6.315,108.436,108.436,0,0,1-2.445-29.676c.64-11.845.312-23.713.845-35.553a373.042,373.042,0,0,1,4.787-46.62,67.163,67.163,0,0,1,1.976-6.9,4.262,4.262,0,0,1,1.774-2.092,201.644,201.644,0,0,1,24.55-16.358c1.249-.724,2.048-1.421,1.416-3.013a5.69,5.69,0,0,1-.225-1.505c-.241-2.243,0-3.917,2.3-5.35,7.519-4.652,15.171-9.039,22.851-13.391,1.751-.991,3.072-.955,4.168.742,1.134,1.774,2.028,1.252,3.492.233,6.026-4.193,12.186-8.192,19.008-10.926,4.81-1.925,9.024-.072,12.956,2.668,4.5,3.133,7.954,7.442,11.558,11.52,8.287,9.367,16.128,19.113,22.577,29.967.845,1.423,1.434,3.008,2.281,4.429,1.7,2.849,1.16,5.527-.325,8.225a62.209,62.209,0,0,1-6.016,8.965,152.272,152.272,0,0,1-13.862,15.616,10.514,10.514,0,0,1-13.128.827,54.3,54.3,0,0,1-12.472-12.367,26.368,26.368,0,0,1-1.956-3.364c-1.3-2.47-1.359-4.749.712-6.958,2.452-2.616,4.728-5.4,7.063-8.136a2.421,2.421,0,0,1,3.215-.658,33.784,33.784,0,0,1,9.81,6.377,5.347,5.347,0,0,1,1.636,4.7,18.526,18.526,0,0,1-2.657,7.3c-.512.914-.512,1.334.384,1.851,4.89,2.834,4.782,3.446,7.532-1.71,3.1-5.806,4.078-12.357,5.839-18.632a2.692,2.692,0,0,0-.548-2.263,20.515,20.515,0,0,0-2.363-3.072c-7.565-7.424-14.961-15.068-23.206-21.732-5.335-4.314-8.4-4.209-13.517.256-2.1,1.833-4.219,3.666-6.469,5.3-.863.625-1.129,1.129-.852,2.081.735,2.542-.054,4.17-2.253,5.788-7.135,5.248-14.262,10.463-21.737,15.212-3.492,2.22-6.326,5.56-9.364,8.494-3.456,3.328-6.792,6.8-10.217,10.166a1.711,1.711,0,0,0-.428,2.388c1.28,2.624,1.605,5.553,1.987,8.43a4.918,4.918,0,0,1-1.592,4.326C138.788,167.188,137.382,168.471,135.849,169.9Zm89.024,71.636c-.494,0-.991.026-1.482,0a.847.847,0,0,1-.863-.794.929.929,0,0,1,.791-1.1,13.416,13.416,0,0,1,1.475-.125c2.954-.256,5.908-.512,8.855-.817.852-.087,1.654-.238,1.413-1.595-.886-5.025-1.3-5.4-6.262-5.135a5.83,5.83,0,0,0-.635.041c-12.073,1.226-24.141.768-36.193-.256a7.053,7.053,0,0,0-5.043,1.349,64.644,64.644,0,0,0-22.82,26.957,135.742,135.742,0,0,0-9.613,28.577c-1.4,6.871-1.93,4.623,3.231,9.088a95.475,95.475,0,0,0,22.415,14.787c1.213.558,2.394,1.454,3.794,1.16,3.389-.712,6.764-1.513,10.127-2.335a7.639,7.639,0,0,0,2.936-1.7c1.042-.855,1.318-1.536.233-2.762-3.108-3.535-6.751-6.715-8.041-11.6-.2-.768-1.183-1.549-.166-2.3.934-.7,1.536.2,2.181.732a75.59,75.59,0,0,0,12.8,8.878c2.79,1.485,5.865,1.221,7.662-.847a41.82,41.82,0,0,0,7.094-10.534c.489-1.124.97-1.848,2.209-1.917,1.492-.079,1.874-.768,1-2.092-1.252-1.923-.7-3.489.8-5.033,1.441-1.485,2.693-3.169,4.035-4.759,1.137-1.344.927-2.34-.256-3.727-2.017-2.363-4.9-2.772-7.357-4.111-.576-.315-1.226-.645-.87-1.467.338-.768.991-.719,1.615-.353,2.258,1.326,4.833,1.587,7.276,2.286,2.79.8,3.758.338,4.954-2.4a41.849,41.849,0,0,0,3.1-14.157,2.574,2.574,0,0,0-2.3-3.072c-1.943-.361-3.9-.64-5.86-.924-.573-.084-1.2-.072-1.28-.84-.092-.858.512-1.132,1.183-1.244,1.044-.179,2.1-.256,3.144-.451.637-.115,1.178-.312,1.124-1.249-.184-3.167-1.764-4.631-4.726-4.283C226,241.467,225.439,241.49,224.873,241.536Zm-87.447-57.659c2.34.146,4.178.212,6,.394,1.1.108,1.623-.12,1.38-1.4-.433-2.276-.722-4.588-1.211-6.851-.594-2.749-2.107-3.96-4.8-3.894-2.048.051-4.081.279-6.121.394-.742.044-1.7.384-2.048-.6s.625-1.318,1.219-1.792c2.245-1.754,4.81-3.072,6.7-5.3.73-.852,1.587-1.651,1.449-3-.512-5.1-1.856-9.687-6.912-12.032a6.694,6.694,0,0,1-.722-.456c-.653-.407-1.623-.768-1.1-1.756.635-1.2,1.444-.223,2.163.077,1.59.658,2.593,3.131,4.393,2.432,1.518-.589,2.545-2.442,3.894-3.607.891-.768.963-1.211-.036-1.923-6.615-4.716-13.2-9.472-20.378-13.289-1.851-.98-2.76-.256-3.469,1.339a18.344,18.344,0,0,0-.74,2.294c-1.536,5.166-1.92,10.54-2.765,15.834-1.93,12.063-2.276,24.253-3.226,36.4-.095,1.2-.028,2.12,1.567,1.362C120.7,184.676,129.3,184.233,137.426,183.877Zm36.687,43.451c-.893-.412-1.587-.712-2.266-1.05-2.67-1.324-5.468-2.458-7.762-4.429a5.62,5.62,0,0,0-4.92-1.2,53.451,53.451,0,0,0-21.2,8.468c-8.52,5.56-12.815,14.461-17.085,23.391-1.644,3.438-1.876,6.2,1.628,8.415a4.07,4.07,0,0,1,1.17,1.254c1.083,1.708,2.263,1.467,3.7.438,3.712-2.66,7.485-5.23,11.22-7.857.686-.484,1.28-1.329,2.222-.666s.325,1.556.092,2.36c-1.792,6.124-4.209,12.032-5.678,18.268-.187.788-.494,1.536.1,2.266,1.044,1.28,2.048,2.6,3.149,3.84.916,1.024,1.428.842,1.743-.6.584-2.685,1.3-5.348,2.048-7.99,4.421-15.388,12.242-28.518,24.307-38.843C168.96,231.355,171.451,229.463,174.113,227.328Zm37.6-78.684c1.574-.141,3.139.238,4-1.331a17.167,17.167,0,0,0,1.981-5.033A4.2,4.2,0,0,0,216.325,138a33.764,33.764,0,0,0-8.21-5.345,1.739,1.739,0,0,0-2.406.566c-1.766,2.081-3.607,4.1-5.34,6.205-2.875,3.5-2.977,4.242-.458,8.061,3.205,4.864,7.488,8.635,11.807,12.434,3.722,3.277,10.022,2.373,12.854-.96q3.21-3.779,6.618-7.373c4.375-4.608,7.852-9.9,11.354-15.186a6.238,6.238,0,0,0,.643-5.965c-2.772-7.969-7.841-14.413-12.8-20.951-.829-1.1-1.462-.445-2.089.148-1.82,1.723-3.535,3.584-5.443,5.189-1.262,1.068-1.052,1.7,0,2.724q3.709,3.584,7.235,7.368c2.071,2.227,3.141,4.754,2.015,7.936-.745,2.109-1.193,4.329-1.777,6.5-1.265,4.7-2.575,9.4-5.391,13.432-1.331,1.91-2.993,3.072-5.407,1.452-3.658-2.45-7.532-4.2-12-4.227-.666,0-1.62-.115-1.5-1.119.138-1.2,1.17-.786,1.874-.73C209.249,148.283,210.578,148.5,211.712,148.644ZM110.861,236.032c6.042-7.424,13.4-12.477,21.261-16.85,6.423-3.584,13.507-5.038,20.5-6.769,2.3-.571,2.642-.8,1.175-2.719-1.736-2.281-2.332-4.895-3.2-7.455-.722-2.122-1.372-4.273-2.028-6.418-.279-.919-.584-1.5-1.766-1.28a52.62,52.62,0,0,0-23.124,10.24c-4.744,3.715-8.4,8.6-12.739,12.754a1.7,1.7,0,0,0-.566,1.339C110.461,224.448,109.919,230.042,110.861,236.032Zm75.418-5.153c-3.162-.829-6.029-1.585-8.9-2.332a2,2,0,0,0-1.792.366c-5.957,4.444-11.7,9.111-16.484,14.948-8.916,10.867-14.039,23.552-17.152,37.22-.256,1.08-.7,2.3.374,3.267q4.178,3.689,8.384,7.35c.673.589,1.024.6,1.183-.468a90.824,90.824,0,0,1,2.4-10.24,163.4,163.4,0,0,1,6.656-18.747c3.924-9.457,9.247-17.961,17.055-24.594,2.655-2.263,5.381-4.419,8.274-6.781ZM147.7,104.763c3.694,2.276,7.424,4.434,10.2,7.8,3.151,3.814,5.842,7.875,4.726,13.34-.1.479-.353,1.152.392,1.592.276-.164.579-.328.868-.512a195.018,195.018,0,0,0,15.89-11.52c1.362-1.088,2.744-1.554,2.048-4.2-1.848-6.886-5.752-12.516-9.418-18.332-.929-1.472-1.984-1.562-3.54-.686C161.731,96.236,154.591,100.191,147.7,104.763ZM111.36,240.591c.218,1.487.41,3.364.768,5.2.632,3.172.9,6.5,3.558,8.845,1.213,1.073,2.048,1.162,2.583-.568,1.382-4.457,3.72-8.448,5.937-12.477a39.284,39.284,0,0,1,16.228-16.384c5.686-2.99,11.487-5.558,17.874-6.472.417-.061,1.28.056.9-.965a5.548,5.548,0,0,0-5.962-3.43c-8.192,1.964-16.364,3.924-23.636,8.576-6.438,4.114-12.69,8.448-17.359,14.751A3.336,3.336,0,0,0,111.36,240.591Zm-.166-26.831c.635-.141,1-.914,1.5-1.472,8.312-9.3,18.109-16.1,30.208-19.028,4.278-1.024,4.275-1.055,3.087-5.4-.077-.279-.128-.568-.223-.837a1.049,1.049,0,0,0-1.134-.74c-5.42-.1-10.834-.433-16.251.289-5.476.732-10.89,1.577-15.854,4.3-1.178.648-1.866,1.185-1.464,2.816a19.335,19.335,0,0,1,.123,4.483C111.2,203.325,111.194,208.494,111.194,213.76Zm49.7-90.88c0,.241.044,0,0-.192a20.947,20.947,0,0,0-8.494-12.326,1.134,1.134,0,0,0-1.377.031q-8.253,4.89-16.52,9.756c-.755.443-1.024.878-.34,1.679a161.931,161.931,0,0,0,14.848,15.2c.96.858,1.659.714,2.524-.131,1.843-1.792,3.84-3.433,5.632-5.284A12.536,12.536,0,0,0,160.9,122.88ZM200.282,96.4c.087.673-.643,1.866.589,2.47,5.184,2.545,9.229,6.612,13.379,10.534.824.768,1.357.737,2.112-.018,2.125-2.122,4.262-4.232,6.467-6.267,1.052-.973,1.149-1.667.172-2.852-4.119-4.987-8.55-9.659-13.1-14.216a20.717,20.717,0,0,0-5.632-3.822c-1.915-.957-2.365-.742-2.616,1.385C201.157,87.782,200.75,91.963,200.282,96.4Zm-7.224,1.851c-1.009-3.8-1.024-8.228-2.33-12.413-.348-1.121-.809-1.28-1.631-.717-3.871,2.675-8.225,4.524-11.919,7.506a1.942,1.942,0,0,0-.576,2.911c2.033,3.732,4.608,7.168,6,11.264.384,1.121,1.037.668,1.633.174,2.8-2.33,5.594-4.672,8.4-6.991C193.073,99.62,193.28,99.22,193.057,98.25Zm-71.424,30.787a222.561,222.561,0,0,1,19.22,12.347c3.761,2.6,3.735,2.573,6.879-.919.768-.847.768-1.244-.128-2.03-2.463-2.176-4.864-4.434-7.168-6.792-2.6-2.665-5.059-5.476-7.585-8.218-.632-.684-1.18-1.434-2.3-.622-2.8,2.045-5.7,4-8.916,6.234Zm78.3-44.874a6.206,6.206,0,0,1,0-.873c.256-1.807-.243-2.506-2.181-2a27.94,27.94,0,0,0-4.536,1.777c-.668.307-1.024.727-.768,1.536,1.28,4.17,1.605,8.53,2.409,12.8.125.666.294,1.51,1.134,1.1s2.491.6,2.537-1.155A122.014,122.014,0,0,1,199.936,84.163Zm16.922,27.587c.681.666,1.423,1.331,2.094,2.066.607.668,1.093.7,1.759.049,2.138-2.1,4.352-4.124,6.482-6.223,1.682-1.654-.461-2.3-.973-3.292-.627-1.216-1.341-.422-1.979.2-2.437,2.4-4.895,4.777-7.38,7.2Z" fill="#ea3f3e"/>
            <path id="Path_16" data-name="Path 16" d="M318.18,99.428c.192.643.663.627,1.06.707,4.262.847,6.556,3.584,7.483,7.867a24.841,24.841,0,0,1,.11,12.068c-.62,2.258-1.807,3.94-4.042,4.239-5.53.745-10.947,2.386-16.563,2.388-5.317,0-6.889-1.239-8.8-6.4a36.831,36.831,0,0,1-1.987-8.909c-.512-4.808.945-8.929,4.726-11.965q6.943-5.571,13.978-11.008c1.769-1.372,3.927-1.59,6.047-1.695,9.728-.484,19.141,1.62,28.48,4.006,6.433,1.644,12.9,3.195,18.985,6.118A30.085,30.085,0,0,1,379.6,107.005c4.17,6.016,7.255,12.646,10.186,19.341,3.328,7.621,6.444,15.36,9.708,23a2.32,2.32,0,0,1-.361,2.744,64.745,64.745,0,0,1-7.5,7.936c1.984.548,3.492.074,4.972.079,1.695,0,3.392-.125,5.087-.2s2.56.589,3.023,2.488c2.627,10.875,2.56,21.852,2.048,32.955-.581,12.7-4.864,24.269-9.137,35.9a138.493,138.493,0,0,1-8.988,19.712c-2.575,4.608-5.632,9.032-8.584,13.455q-8.113,12.147-16.97,23.718c-1.1,1.436-5.573,2.148-7.078,1.024a10.394,10.394,0,0,0-4.692-2.23c-2.3-.389-3.087-2.652-3.584-4.708-.32-1.316-.829-1.536-2.048-1.423-3.566.361-3.666.33-4.547-3.351-.387-1.613-.973-2.342-2.652-2.035a2.744,2.744,0,0,1-2.534-.837c-2.179-2.273-4.628-4.324-5.916-7.342-.425-1-.916-1.413-1.882-.691a4.73,4.73,0,0,1-.556.317c-4.114,2.214-6.564.963-7.508-3.868-.179-.927-.184-1.882-1-2.56-5.2-4.257-5.65-10.4-6.167-16.515-.02-.215.041-.44.015-.653-.532-4.426,1.4-7.657,4.608-10.348.648-.545,1.912-1.208,1.467-2.094-.466-.927-1.654-.079-2.483.072-4.826.873-5.041.512-4.145-4.291.558-3,1.774-4.608,4.746-5.578a93.532,93.532,0,0,0,30.152-16.55A69.8,69.8,0,0,0,363.034,187.2c5.727-9.275,8.031-19.535,7.805-30.538-.23-11.438-1.626-22.587-5.855-33.262a13.171,13.171,0,0,0-6.5-7.176c-10.437-5.358-20.846-10.772-31.316-16.061-2.545-1.28-5.153-3.034-8.192-1.3A8,8,0,0,0,318.18,99.428Zm-4.513,129.987c2.716-.566,5.064-1.047,7.409-1.536.7-.151,1.472-.381,1.964.312.6.835,0,1.556-.527,2.122a75.2,75.2,0,0,1-5.632,5.921c-1.715,1.518-1.969,3.484-2.14,5.466a24.266,24.266,0,0,0,.241,5.217c.392,2.957.645,6.305,2.373,8.492a32.418,32.418,0,0,1,5.676,9.408c.481,1.375,1.536,1.572,2.747.819,1.756-1.088,3.53-2.14,5.274-3.249.607-.387,1.167-1.024,1.82-.2.538.673.082,1.262-.4,1.7-1.193,1.1-1.024,2.194-.256,3.466a36.035,36.035,0,0,0,3.84,4.634,3.593,3.593,0,0,0,4.15,1.324c1.536-.484,2.34-.274,2.373,1.733.051,3.241.737,3.781,3.855,3.72,1.569-.033,2.624.243,2.939,2.24.374,2.365,1.318,4.513,4.337,4.375.768-.033,1.4.625,2.012,1.129a4.627,4.627,0,0,0,6.669-.7c4-5.376,7.887-10.819,11.85-16.21a2.442,2.442,0,0,0,.256-2.6,54.046,54.046,0,0,0-5.345-10.639,166.543,166.543,0,0,0-18.076-23.621,118.062,118.062,0,0,0-17.556-15.068,2.189,2.189,0,0,0-2.56-.338c-4.71,2.56-9.81,4.127-14.728,6.164-.6.256-1.224.422-1.413,1.167C314.481,226.127,314.112,227.584,313.667,229.414Zm47.2-34.772c-.8-.2-1.457.512-2.13,1.326a65.974,65.974,0,0,1-6.116,6.344,82.642,82.642,0,0,1-7.572,6.305c-.568.415-1.595,1.1-.113,1.6,3.4,1.142,6.326,3.226,9.472,4.849,13.7,7.05,25.162,16.64,32.438,30.843.9,1.751,1.421,1.492,2.24-.087,2.3-4.429,4.16-9.057,6.144-13.632a4.279,4.279,0,0,0,.038-3.743,59.658,59.658,0,0,0-4.2-8.556c-5.12-7.754-9.9-15.849-18.327-20.436C369.085,197.455,365.548,195.072,360.863,194.642ZM347.991,92.5c-9.871-2.419-19.315-4.439-29.092-3.786a6.077,6.077,0,0,0-3.584,1.129q-6.8,5.376-13.627,10.737a10.737,10.737,0,0,0-4.326,7.229c-.556,4.308.635,8.356,2.028,12.314,1.364,3.884,2.429,4.57,6.477,4.582,5.76.015,11.323-1.472,16.94-2.527,1.626-.307,2-1.664,2.353-3.011,1.119-4.234.471-8.361-.768-12.436a6.567,6.567,0,0,0-4.946-4.575,24.181,24.181,0,0,0-11.543,0c-.724.143-1.772.525-1.984-.54-.236-1.172.868-1.38,1.7-1.428,4.1-.241,7.79-1.948,11.52-3.476a5.916,5.916,0,0,1,4.544-.092c1.585.612,3.172,1.242,4.692,2,3.244,1.62,6.433,3.348,9.664,4.992.724.369,1.684,1.347,2.127-.3,1.2-4.475,4.009-7.741,7.823-10.819ZM334.454,215.662c.952.719,1.631,1.226,2.3,1.743,4.972,3.84,10.033,7.629,14.275,12.288,9.564,10.511,18.688,21.422,24.64,34.662.637,1.418,1.073,1.444,1.9.138,2.9-4.557,5.921-9.032,8.627-13.719a1.371,1.371,0,0,0,.115-1.556c-4.465-8.6-9.871-16.41-17.485-22.405-6.876-5.414-14.533-9.49-22.149-13.635-3.19-1.736-6.313-2.345-9.27.617a17.383,17.383,0,0,1-2.959,1.864Zm61.727-53.594v.031h-5.514c-.719,0-1.454-.092-1.743-.94-.256-.748.215-1.234.671-1.7s.919-.906,1.364-1.372c2.076-2.184,4.132-4.385,6.223-6.551,1.408-1.457-.054-2.56-.486-3.694-.481-1.257-1.477-.374-2.15-.036a74.339,74.339,0,0,1-19.1,6.38c-2.437.489-2.954,1.71-2.888,3.976a45.379,45.379,0,0,1-1.444,14.205c-.809,2.755-.768,2.765,2.048,2.138,1.106-.256,2.2-.55,3.328-.714,9.216-1.354,18.322-1.18,27.021,2.788,1.347.614,1.677.256,1.48-1.065-.468-3.156-.8-6.349-1.49-9.459-1.175-5.315-.067-4.2-5.2-4.076-.707.01-1.411.059-2.117.092ZM363.8,189.619c3.295.082,5.983,1.536,8.863,2.232,12.652,3.072,22.139,10.273,27.9,22.408.108.228.225.563.691.361,2.3-5.632,2.982-11.633,3.633-17.684.289-2.691-.947-4.122-2.755-5.555-9.756-7.736-21.171-9.439-33-9.695a1.412,1.412,0,0,0-1.452,1A55.486,55.486,0,0,1,363.8,189.619Zm-10.227-79.483c-.512,1.71,1.121,1.979,2.263,2.56,3.84,1.976,7.921,3.584,9.984,7.916.379.794,1.024.589,1.651.4a76.387,76.387,0,0,0,13.478-5.135c.881-.458,1.354-.8.768-1.93-4.012-7.667-9.426-13.724-17.664-16.64a2.386,2.386,0,0,0-1.825-.041C357.949,98.964,353.713,105.091,353.569,110.136Zm8.092,82.3c18.227,4.754,27.633,18.755,35.469,34.77.7-1.91,1.411-3.5,1.861-5.166.4-1.5,1.4-2.941.745-4.608a37.48,37.48,0,0,0-15.1-18.542c-5.722-3.617-12.326-4.951-18.668-6.912a4.6,4.6,0,0,0-4.3.458ZM382.108,141.7a95.491,95.491,0,0,0,10.033-.492c1.4-.136,1.741-.563,1.165-1.889-1.646-3.776-3.244-7.575-4.864-11.366-.323-.753-.6-1.536-1.677-1.06a65.97,65.97,0,0,1-15.465,4.419c-1.37.236-1.441,1.119-1.185,2.248.492,2.186,1.024,4.37,1.416,6.579.223,1.242.753,1.646,1.984,1.592,2.473-.1,4.948-.031,8.594-.031ZM404.969,191.1c.584-3.1.1-5.793.4-8.428.256-2.2-.847-3.313-2.56-4.206a30.265,30.265,0,0,0-11.415-3.016,50.043,50.043,0,0,0-20.736,1.846c-.855.282-1.48.684-1.3,1.644s1.024.617,1.59.6c7.1-.238,13.839,1.792,20.58,3.64,4.91,1.354,9.137,4.18,13.437,7.928ZM360.12,95.959c-2.424-.694-4.744-1.28-7-2.048a4.067,4.067,0,0,0-3.249.228c-4.273,1.971-6.4,5.724-8.01,9.948-.369.97,0,1.37.827,1.769,2.429,1.175,4.864,2.353,7.206,3.7,1.388.8,1.626.184,1.884-1.024a19.955,19.955,0,0,1,1.974-5.934A21.984,21.984,0,0,1,360.12,95.959Zm21.1,47.846c-2.936,0-4.992.1-7.03-.033-1.649-.108-2.1.489-1.92,2.122.207,1.925.161,3.878.238,5.819.041,1.05.563,1.065,1.431.845,6.912-1.746,13.824-3.525,20.25-6.828.512-.256,1.585-.187,1.1-1.388-.358-.876-.768-1.444-1.869-1.3A76.477,76.477,0,0,1,381.22,143.805Zm-10.26-14.525a66.913,66.913,0,0,0,12.183-3.141c3.8-1.454,3.784-1.5,1.943-5.3a22.87,22.87,0,0,1-1.114-2.35c-.466-1.329-1.137-1.336-2.253-.735a55.4,55.4,0,0,1-10.035,4.081c-5.051,1.549-5.1,1.72-2.739,6.625C369.283,129.167,369.684,129.48,370.959,129.28Z" fill="#ea3f3e"/>
            <path id="Path_17" data-name="Path 17" d="M224.873,241.536c.566-.046,1.132-.069,1.692-.136,2.962-.348,4.541,1.116,4.726,4.283.054.937-.486,1.134-1.124,1.249-1.042.187-2.1.271-3.144.451-.658.113-1.28.387-1.183,1.244.082.768.7.755,1.28.84,1.956.284,3.917.563,5.86.924a2.573,2.573,0,0,1,2.3,3.072,41.849,41.849,0,0,1-3.1,14.157c-1.2,2.739-2.163,3.2-4.954,2.4-2.442-.7-5.018-.96-7.276-2.286-.625-.366-1.28-.425-1.615.353-.356.822.294,1.152.87,1.467,2.46,1.339,5.34,1.748,7.357,4.111,1.185,1.388,1.4,2.383.256,3.727-1.341,1.59-2.593,3.274-4.035,4.759-1.5,1.536-2.048,3.11-.8,5.033.87,1.336.489,2.012-1,2.092-1.239.069-1.72.794-2.209,1.917a41.957,41.957,0,0,1-7.094,10.534c-1.792,2.068-4.864,2.332-7.662.847a74.38,74.38,0,0,1-12.8-8.878c-.637-.532-1.247-1.436-2.181-.732-1.024.768-.036,1.536.166,2.3,1.28,4.882,4.933,8.061,8.041,11.6,1.085,1.236.809,1.907-.233,2.762a7.677,7.677,0,0,1-2.936,1.7c-3.364.822-6.738,1.623-10.127,2.335-1.4.294-2.58-.6-3.794-1.16a95.236,95.236,0,0,1-22.415-14.787c-5.161-4.465-4.626-2.217-3.231-9.088a135.742,135.742,0,0,1,9.613-28.577,64.581,64.581,0,0,1,22.82-26.957,7.053,7.053,0,0,1,5.043-1.349c12.052,1.024,24.12,1.485,36.193.256.21-.023.422-.028.635-.041,4.966-.256,5.376.11,6.262,5.135.241,1.357-.561,1.508-1.413,1.595-2.947.307-5.9.55-8.855.817a13.424,13.424,0,0,0-1.475.125.929.929,0,0,0-.791,1.1.847.847,0,0,0,.863.794C223.882,241.562,224.379,241.536,224.873,241.536Z" fill="#1a1a1a"/>
            <path id="Path_18" data-name="Path 18" d="M137.426,183.877c-8.125.356-16.73.8-24.755,4.608-1.595.768-1.661-.159-1.567-1.362.95-12.145,1.3-24.335,3.226-36.4.845-5.294,1.226-10.668,2.765-15.834a18.341,18.341,0,0,1,.74-2.268c.709-1.585,1.618-2.319,3.469-1.339,7.181,3.809,13.763,8.573,20.378,13.289,1,.712.927,1.155.036,1.923-1.349,1.165-2.376,3.018-3.894,3.607-1.792.7-2.816-1.774-4.393-2.432-.719-.3-1.536-1.28-2.163-.077-.525.991.445,1.349,1.1,1.756a6.694,6.694,0,0,0,.722.456c5.056,2.34,6.4,6.927,6.912,12.032.138,1.352-.719,2.15-1.449,3-1.894,2.214-4.46,3.546-6.7,5.3-.594.463-1.567.783-1.219,1.792s1.306.643,2.048.6c2.048-.115,4.078-.343,6.121-.394,2.7-.067,4.209,1.144,4.8,3.894.489,2.263.768,4.575,1.211,6.851.256,1.28-.284,1.5-1.38,1.4C141.6,184.09,139.776,184.023,137.426,183.877Z" fill="#1a1a1a"/>
            <path id="Path_19" data-name="Path 19" d="M174.113,227.328c-2.662,2.132-5.158,4.024-7.539,6.057-12.065,10.327-19.886,23.457-24.3,38.835-.768,2.642-1.472,5.3-2.048,7.99-.315,1.446-.827,1.631-1.743.6-1.1-1.231-2.1-2.545-3.149-3.84-.594-.73-.287-1.477-.1-2.266,1.469-6.231,3.894-12.145,5.678-18.268.233-.8.876-1.672-.092-2.36s-1.536.182-2.222.666c-3.735,2.627-7.508,5.2-11.22,7.857-1.434,1.024-2.614,1.28-3.7-.438a4.07,4.07,0,0,0-1.17-1.254c-3.5-2.22-3.272-4.977-1.628-8.415,4.27-8.929,8.566-17.83,17.085-23.391a53.452,53.452,0,0,1,21.2-8.468,5.62,5.62,0,0,1,4.92,1.2c2.3,1.971,5.092,3.105,7.762,4.429C172.526,226.619,173.22,226.918,174.113,227.328Z" fill="#1a1a1a"/>
            <path id="Path_20" data-name="Path 20" d="M211.712,148.644c-1.139-.146-2.468-.361-3.8-.468-.7-.056-1.736-.471-1.874.73-.118,1,.837,1.114,1.5,1.119,4.467.028,8.34,1.777,12,4.227,2.414,1.618,4.076.458,5.407-1.452,2.816-4.037,4.127-8.73,5.391-13.432.584-2.171,1.024-4.39,1.777-6.5,1.126-3.192.056-5.719-2.015-7.936q-3.517-3.784-7.235-7.368c-1.06-1.024-1.28-1.656,0-2.724,1.907-1.613,3.622-3.466,5.443-5.189.627-.594,1.26-1.244,2.089-.148,4.959,6.538,10.028,12.982,12.8,20.951a6.231,6.231,0,0,1-.643,5.965C239.048,141.7,235.571,147,231.2,151.6q-3.4,3.584-6.618,7.373c-2.831,3.328-9.132,4.237-12.854.96-4.319-3.8-8.6-7.578-11.807-12.434-2.519-3.82-2.417-4.564.458-8.061,1.733-2.109,3.584-4.124,5.34-6.205a1.753,1.753,0,0,1,2.406-.566,33.764,33.764,0,0,1,8.21,5.345,4.2,4.2,0,0,1,1.364,4.275,17.193,17.193,0,0,1-1.981,5.033C214.853,148.908,213.292,148.5,211.712,148.644Z" fill="#1a1a1a"/>
            <path id="Path_21" data-name="Path 21" d="M110.861,236.032c-.942-5.978-.4-11.571-.486-17.152a1.7,1.7,0,0,1,.566-1.339c4.337-4.157,7.995-9.039,12.739-12.754a52.678,52.678,0,0,1,23.124-10.24c1.183-.223,1.487.353,1.766,1.28.655,2.145,1.306,4.3,2.028,6.418.87,2.56,1.469,5.179,3.2,7.447,1.467,1.923,1.137,2.148-1.175,2.719-7,1.731-14.08,3.192-20.5,6.769C124.262,223.542,116.9,228.585,110.861,236.032Z" fill="#1a1a1a"/>
            <path id="Path_22" data-name="Path 22" d="M186.278,230.866c-2.893,2.363-5.619,4.518-8.271,6.771-7.808,6.633-13.13,15.137-17.055,24.594a163.4,163.4,0,0,0-6.656,18.747,90.567,90.567,0,0,0-2.4,10.24c-.166,1.065-.512,1.057-1.183.468q-4.193-3.686-8.376-7.352c-1.075-.95-.62-2.186-.374-3.267,3.105-13.673,8.228-26.353,17.152-37.22,4.787-5.837,10.527-10.5,16.484-14.948a2,2,0,0,1,1.792-.366C180.25,229.281,183.117,230.036,186.278,230.866Z" fill="#1a1a1a"/>
            <path id="Path_23" data-name="Path 23" d="M147.7,104.763c6.894-4.572,14.034-8.527,21.151-12.529,1.556-.876,2.611-.786,3.54.686,3.666,5.816,7.57,11.446,9.418,18.332.707,2.642-.676,3.108-2.048,4.2a195.016,195.016,0,0,1-15.89,11.52c-.289.187-.591.351-.868.512-.745-.44-.489-1.114-.392-1.592,1.116-5.466-1.574-9.526-4.726-13.34C155.11,109.2,151.391,107.039,147.7,104.763Z" fill="#1a1a1a"/>
            <path id="Path_24" data-name="Path 24" d="M111.36,240.591a3.33,3.33,0,0,1,.9-2.916c4.669-6.308,10.921-10.637,17.359-14.751,7.273-4.652,15.455-6.612,23.636-8.576a5.548,5.548,0,0,1,5.962,3.43c.364,1.024-.486.9-.9.965-6.4.914-12.188,3.482-17.874,6.472A39.225,39.225,0,0,0,124.214,241.6c-2.217,4.032-4.554,8.02-5.937,12.477-.538,1.731-1.37,1.641-2.583.568-2.662-2.345-2.926-5.673-3.558-8.845C111.759,243.968,111.567,242.079,111.36,240.591Z" fill="#1a1a1a"/>
            <path id="Path_25" data-name="Path 25" d="M111.194,213.76V198.17a19.186,19.186,0,0,0-.123-4.483c-.4-1.626.287-2.163,1.464-2.816,4.964-2.724,10.378-3.569,15.854-4.3,5.417-.722,10.831-.392,16.251-.289a1.049,1.049,0,0,1,1.134.74c.095.269.146.558.223.837,1.188,4.352,1.19,4.352-3.087,5.4-12.106,2.931-21.9,9.728-30.208,19.028C112.192,212.836,111.828,213.609,111.194,213.76Z" fill="#1a1a1a"/>
            <path id="Path_26" data-name="Path 26" d="M160.9,122.88a12.512,12.512,0,0,1-3.745,8.732c-1.792,1.851-3.781,3.487-5.632,5.284-.865.845-1.564.988-2.524.131a161.923,161.923,0,0,1-14.848-15.2c-.689-.8-.415-1.237.34-1.679q8.264-4.864,16.52-9.756a1.141,1.141,0,0,1,1.377-.031,20.993,20.993,0,0,1,8.494,12.326C160.942,122.9,160.9,123.136,160.9,122.88Z" fill="#1a1a1a"/>
            <path id="Path_27" data-name="Path 27" d="M200.282,96.4c.468-4.436.876-8.617,1.364-12.785.256-2.127.7-2.342,2.616-1.385a21.129,21.129,0,0,1,5.632,3.822c4.554,4.557,8.986,9.229,13.1,14.216.978,1.185.881,1.879-.172,2.852-2.2,2.035-4.352,4.145-6.467,6.267-.755.755-1.28.8-2.112.018-4.15-3.922-8.192-7.99-13.379-10.534C199.639,98.266,200.369,97.073,200.282,96.4Z" fill="#1a1a1a"/>
            <path id="Path_28" data-name="Path 28" d="M193.057,98.25c.21.97.015,1.37-.42,1.731-2.816,2.319-5.6,4.662-8.4,6.991-.6.494-1.249.947-1.633-.174-1.4-4.1-3.968-7.529-6-11.264a1.948,1.948,0,0,1,.576-2.911c3.694-2.982,8.049-4.831,11.919-7.506.822-.568,1.28-.4,1.631.717C192.028,90.022,192.049,94.449,193.057,98.25Z" fill="#1a1a1a"/>
            <path id="Path_29" data-name="Path 29" d="M121.631,129.037c3.218-2.237,6.113-4.188,8.929-6.234,1.121-.812,1.669-.061,2.3.622,2.527,2.742,4.984,5.553,7.585,8.218,2.3,2.358,4.7,4.608,7.168,6.792.891.786.893,1.183.128,2.03-3.144,3.492-3.118,3.52-6.879.919A225.725,225.725,0,0,0,121.631,129.037Z" fill="#1a1a1a"/>
            <path id="Path_30" data-name="Path 30" d="M199.936,84.163a120.815,120.815,0,0,0-1.4,13.176c-.046,1.756-1.69.74-2.537,1.155s-1.009-.435-1.134-1.1c-.8-4.268-1.139-8.627-2.409-12.8a1.147,1.147,0,0,1,.768-1.536,27.94,27.94,0,0,1,4.536-1.777c1.938-.512,2.435.192,2.181,2A6.2,6.2,0,0,0,199.936,84.163Z" fill="#1a1a1a"/>
            <path id="Path_31" data-name="Path 31" d="M216.86,111.749c2.486-2.419,4.943-4.8,7.383-7.2.637-.627,1.352-1.421,1.979-.2.512,1,2.655,1.638.973,3.292-2.138,2.1-4.352,4.124-6.482,6.223-.666.655-1.152.62-1.759-.049C218.284,113.08,217.541,112.415,216.86,111.749Z" fill="#1a1a1a"/>
            <path id="Path_32" data-name="Path 32" d="M313.667,229.414c.453-1.825.814-3.287,1.183-4.749.189-.745.814-.916,1.413-1.167,4.918-2.048,10.017-3.612,14.728-6.164a2.193,2.193,0,0,1,2.56.338,117.462,117.462,0,0,1,17.556,15.068,166.54,166.54,0,0,1,18.076,23.621A54.049,54.049,0,0,1,374.528,267a2.484,2.484,0,0,1-.256,2.6c-3.963,5.391-7.854,10.842-11.85,16.21a4.627,4.627,0,0,1-6.669.7c-.614-.512-1.247-1.162-2.012-1.129-3.018.138-3.963-2.01-4.337-4.375-.315-2-1.37-2.273-2.939-2.24-3.118.061-3.8-.479-3.855-3.72-.033-2.007-.85-2.217-2.373-1.733a3.593,3.593,0,0,1-4.15-1.324,35.482,35.482,0,0,1-3.84-4.634c-.768-1.28-.945-2.371.256-3.466.479-.44.934-1.024.4-1.7-.653-.817-1.213-.187-1.82.2-1.743,1.108-3.517,2.161-5.274,3.249-1.213.753-2.266.556-2.747-.819a32.249,32.249,0,0,0-5.676-9.408c-1.728-2.186-1.981-5.535-2.373-8.492a24.266,24.266,0,0,1-.241-5.217c.172-1.981.425-3.948,2.14-5.466a73.834,73.834,0,0,0,5.632-5.921c.512-.566,1.124-1.28.527-2.122-.492-.694-1.26-.463-1.964-.312C318.72,228.367,316.383,228.849,313.667,229.414Z" fill="#1a1a1a"/>
            <path id="Path_33" data-name="Path 33" d="M360.863,194.642c4.685.42,8.223,2.816,11.889,4.81,8.428,4.588,13.217,12.682,18.327,20.436a59.139,59.139,0,0,1,4.2,8.556,4.279,4.279,0,0,1-.038,3.743c-1.987,4.575-3.84,9.2-6.144,13.632-.819,1.58-1.344,1.838-2.24.087-7.276-14.208-18.734-23.793-32.438-30.843-3.156-1.623-6.085-3.707-9.472-4.849-1.482-.5-.456-1.183.113-1.6a82.631,82.631,0,0,0,7.572-6.305,65.964,65.964,0,0,0,6.116-6.344C359.406,195.154,360.067,194.44,360.863,194.642Z" fill="#1a1a1a"/>
            <path id="Path_34" data-name="Path 34" d="M347.991,92.5c-3.814,3.072-6.623,6.344-7.828,10.816-.443,1.644-1.4.666-2.127.3-3.231-1.644-6.42-3.372-9.664-4.992-1.521-.768-3.108-1.39-4.692-2a5.916,5.916,0,0,0-4.544.092c-3.73,1.536-7.424,3.236-11.52,3.476-.835.049-1.938.256-1.7,1.428.212,1.065,1.26.684,1.984.54a24.181,24.181,0,0,1,11.543,0,6.559,6.559,0,0,1,4.946,4.575c1.242,4.076,1.889,8.192.768,12.436-.353,1.347-.727,2.7-2.353,3.011-5.617,1.055-11.18,2.542-16.94,2.527-4.047-.013-5.12-.7-6.477-4.582-1.393-3.958-2.583-8.005-2.028-12.314a10.76,10.76,0,0,1,4.326-7.229q6.817-5.361,13.627-10.737a6.082,6.082,0,0,1,3.584-1.129C328.676,88.064,338.12,90.076,347.991,92.5Z" fill="#1a1a1a"/>
            <path id="Path_35" data-name="Path 35" d="M334.454,215.66a16.44,16.44,0,0,0,2.954-1.866c2.957-2.962,6.08-2.353,9.27-.617,7.616,4.145,15.273,8.22,22.149,13.635,7.613,6,13.02,13.809,17.485,22.405a1.371,1.371,0,0,1-.115,1.556c-2.706,4.687-5.729,9.162-8.627,13.719-.829,1.306-1.265,1.28-1.9-.138-5.965-13.24-15.076-24.151-24.64-34.662-4.242-4.659-9.3-8.448-14.275-12.288C336.084,216.886,335.406,216.379,334.454,215.66Z" fill="#1a1a1a"/>
            <path id="Path_36" data-name="Path 36" d="M396.18,162.066c.707-.033,1.411-.082,2.12-.1,5.138-.128,4.029-1.239,5.2,4.076.686,3.11,1.024,6.3,1.49,9.459.2,1.326-.133,1.679-1.48,1.065-8.7-3.968-17.792-4.142-27.021-2.788-1.116.164-2.212.471-3.328.714-2.834.627-2.87.617-2.048-2.138a45.38,45.38,0,0,0,1.444-14.205c-.067-2.266.451-3.487,2.888-3.976a74.436,74.436,0,0,0,19.1-6.38c.673-.338,1.669-1.221,2.15.036.433,1.126,1.894,2.237.486,3.694-2.092,2.166-4.147,4.367-6.223,6.551-.445.466-.916.909-1.364,1.372s-.929.957-.671,1.7c.289.847,1.024.932,1.743.94,1.838.018,3.676,0,5.514,0Z" fill="#1a1a1a"/>
            <path id="Path_37" data-name="Path 37" d="M363.8,189.619a54.153,54.153,0,0,0,3.884-6.93,1.409,1.409,0,0,1,1.452-1c11.827.256,23.242,1.958,33,9.695,1.807,1.434,3.044,2.865,2.755,5.555-.65,6.052-1.331,12.063-3.633,17.684-.466.2-.584-.133-.691-.361-5.763-12.134-15.25-19.346-27.9-22.408C369.779,191.153,367.1,189.7,363.8,189.619Z" fill="#1a1a1a"/>
            <path id="Path_38" data-name="Path 38" d="M353.569,110.136c.143-5.046,4.38-11.172,8.655-12.869a2.386,2.386,0,0,1,1.825.041c8.233,2.921,13.647,8.978,17.664,16.64.594,1.134.12,1.472-.768,1.93a76.387,76.387,0,0,1-13.478,5.135c-.627.189-1.28.394-1.651-.4-2.066-4.329-6.144-5.939-9.984-7.916C354.691,112.128,353.055,111.846,353.569,110.136Z" fill="#1a1a1a"/>
            <path id="Path_39" data-name="Path 39" d="M361.661,192.438a4.6,4.6,0,0,1,4.3-.458c6.341,1.956,12.946,3.29,18.668,6.912a37.48,37.48,0,0,1,15.1,18.542c.655,1.672-.34,3.118-.745,4.608-.451,1.664-1.16,3.256-1.861,5.166C389.294,211.2,379.889,197.192,361.661,192.438Z" fill="#1a1a1a"/>
            <path id="Path_40" data-name="Path 40" d="M382.108,141.7c-3.645,0-6.121-.074-8.589.031-1.231.054-1.761-.351-1.984-1.592-.394-2.209-.924-4.393-1.416-6.579-.256-1.129-.184-2.012,1.185-2.248a66.042,66.042,0,0,0,15.465-4.419c1.075-.471,1.354.307,1.677,1.06,1.615,3.791,3.213,7.59,4.864,11.366.576,1.326.23,1.754-1.165,1.889A95.489,95.489,0,0,1,382.108,141.7Z" fill="#1a1a1a"/>
            <path id="Path_41" data-name="Path 41" d="M404.969,191.112c-4.3-3.748-8.527-6.574-13.437-7.921-6.74-1.848-13.476-3.878-20.58-3.64-.571.018-1.416.323-1.59-.6s.445-1.362,1.3-1.644a50.081,50.081,0,0,1,20.736-1.846,30.29,30.29,0,0,1,11.415,3.016c1.7.893,2.8,2.01,2.56,4.206C405.074,185.318,405.553,188.017,404.969,191.112Z" fill="#1a1a1a"/>
            <path id="Path_42" data-name="Path 42" d="M360.12,95.959a22.008,22.008,0,0,0-6.372,6.656,19.906,19.906,0,0,0-1.974,5.934c-.256,1.213-.5,1.828-1.884,1.024-2.34-1.349-4.777-2.527-7.206-3.7-.824-.4-1.2-.8-.827-1.769,1.613-4.224,3.738-7.977,8.01-9.948a4.036,4.036,0,0,1,3.249-.228C355.377,94.687,357.7,95.265,360.12,95.959Z" fill="#1a1a1a"/>
            <path id="Path_43" data-name="Path 43" d="M381.22,143.805a75.658,75.658,0,0,0,12.2-.768c1.108-.146,1.51.422,1.869,1.3.489,1.2-.584,1.124-1.1,1.388-6.42,3.3-13.327,5.082-20.25,6.828-.868.22-1.39.2-1.431-.845-.077-1.94-.031-3.894-.238-5.819-.177-1.633.271-2.23,1.92-2.122C376.228,143.908,378.284,143.805,381.22,143.805Z" fill="#1a1a1a"/>
            <path id="Path_44" data-name="Path 44" d="M370.959,129.28c-1.28.195-1.677-.118-2.015-.822-2.363-4.9-2.3-5.076,2.739-6.625a55.4,55.4,0,0,0,10.035-4.081c1.116-.6,1.792-.594,2.253.735a22.884,22.884,0,0,0,1.114,2.35c1.841,3.807,1.856,3.84-1.943,5.3A66.086,66.086,0,0,1,370.959,129.28Z" fill="#1a1a1a"/>
          </g>
        </g>
        <g id="Layer_35" data-name="Layer 35">
          <g id="Eyes_1" data-name="Eyes 1">
            <path id="Path_45" data-name="Path 45" d="M255.916,372.119c-12.531-.684-22.044-6.5-28.646-17.139A64.705,64.705,0,0,1,224.087,349a22.393,22.393,0,0,1-1.477-3.791c-.684-2.982-.343-1.38-.924-4.652-.033-.195-.172-2.67-.159-2.867.09-1.684-.558-2.163-3.072-2.181a23.977,23.977,0,0,1-3.034-.141c-.947-.12-2.281.12-2.278-1.382,0-1.075,1.068-1.293,1.887-1.446,3.671-.681,7.337-1.441,11.039-1.9,16.328-2.048,32.637-4.152,48.64-8.166a37.968,37.968,0,0,0,5.734-1.864,9.147,9.147,0,0,0,5.632-7.826c.742-5.888.02-11.75-.691-17.595-.131-1.065-.34-2.166.975-2.452s1.413.986,1.667,1.815a105.12,105.12,0,0,1,4.646,23.124c.289,3.914-.612,7.452-3.84,10.02-.579.461-.412.891-.451,1.464-.768,11.551-2.918,22.633-10.5,31.985C272.218,368.154,265.193,372.25,255.916,372.119ZM230.881,335.38v.026c-1.3,0-2.593.069-3.881-.02s-1.605.438-1.364,1.649c.919,4.646,2.365,9.132,5.535,12.708,7.293,8.228,16.819,12.273,27.525,11.213,17.684-1.751,26.458-13.809,27.694-30.415.1-1.336-.4-1.434-1.48-1.088a93.6,93.6,0,0,1-15.148,3.29,1.731,1.731,0,0,0-1.7,1.556c-.753,3.487-2.757,6.285-5.071,8.886-7.119,8-21.937,5.476-26.053-4.429-1.421-3.395-1.421-3.395-5.2-3.374Z" fill="#ea3f3e"/>
            <path id="Path_46" data-name="Path 46" d="M314.168,319.025a193.185,193.185,0,0,1,25.37-1.375c2.947.026,5.888,0,8.837.131.929.038,2.23-.015,2.412,1.313.172,1.28-1.075,1.321-1.892,1.667-4,1.69-3.538.878-3.238,5.217.486,7.009,1.083,14.031-.735,20.959-1.641,6.252-4.777,11.287-10.929,14.134a18.131,18.131,0,0,1-19.794-3.476,39.732,39.732,0,0,1-11.843-22.016,24.3,24.3,0,0,1-.637-3.379c-.172-3.52-1.024-6.436-4.285-8.622-2.465-1.661-2.7-4.818-2.734-7.652-.087-7.168-.067-14.318-.054-21.478,0-.842-.394-2.189,1.024-2.148,1.3.036,1.073,1.329,1.05,2.214-.141,6.011.494,11.855,2.944,17.452a9.725,9.725,0,0,0,6.618,5.949,29.91,29.91,0,0,0,7.887,1.111Zm30.487,1c-7.629-.236-15.237-.576-22.784.3-4.278.492-8.492,1.06-12.8.33-5.251-.891-9.608-2.877-11.433-8.4a2.261,2.261,0,0,0-1.362-1.741,35.744,35.744,0,0,0,.028,4.209c.443,3.63,1.073,7.235,4.628,9.316a21,21,0,0,0,13.5,2.514c6.451-.788,12.846-1.933,19.2-3.313,3.732-.812,7.514-1.439,11.018-3.21Z" fill="#ea3f3e"/>
            <path id="Path_47" data-name="Path 47" d="M230.807,335.36h.873c3.786-.023,3.786-.023,5.2,3.372,4.119,9.907,18.944,12.431,26.053,4.431,2.3-2.6,4.321-5.4,5.074-8.886a1.73,1.73,0,0,1,1.695-1.556,93.54,93.54,0,0,0,15.15-3.292c1.078-.343,1.58-.256,1.48,1.088-1.239,16.609-10.01,28.672-27.7,30.418-10.7,1.06-20.224-2.988-27.525-11.213-3.169-3.584-4.608-8.061-5.535-12.708-.241-1.211.044-1.738,1.364-1.649s2.586.02,3.881.02Z" fill="#1a1a1a"/>
            <path id="Path_48" data-name="Path 48" d="M223.347,333.033h.036c2.8-.389,5.591-.812,8.392-1.16,11.343-1.416,22.7-2.7,33.851-5.358,5.076-1.211,10.3-1.874,15.127-3.963,4.408-1.91,6.912-5.12,7.109-10.207.072-1.943.056-3.886.146-6.077a.527.527,0,0,1,1.05-.064c0,.028,0,.059,0,.087.271,2.429,1.3,4.818,1.28,7.222,0,2.975,1.114,6.006-.1,8.94a8.554,8.554,0,0,1-5.8,5.059,130.3,130.3,0,0,1-20.393,3.971,248.56,248.56,0,0,1-27.607,1.83c-4.352.054-8.717.061-13.074.271h-.046C221.138,333.486,222.3,333.256,223.347,333.033Z" fill="#1a1a1a"/>
            <path id="Path_49" data-name="Path 49" d="M343.319,327.47c.056,7.007-1.454,13.527-6.093,18.99s-10.092,9.234-18.225,6.1a21.568,21.568,0,0,1-8.374-5.934c-4.562-5.176-6.385-11.264-7.4-17.682-.059-.381-.207-.98.387-1.044a1.815,1.815,0,0,1,1.994.95,21.153,21.153,0,0,1,.924,2.849q.09.318.192.63c1.024,3.072,4.534,7.122,7.7,7.788,3.663.768,6.853.579,10.77-3.113,2.588-2.435,3.141-5.233,3.4-8.814-.118-1.324.512-1.792,1.608-2.02a113.627,113.627,0,0,0,11.7-2.547c.927-.3,1.518-.151,1.423,1.044C343.26,325.6,343.319,326.536,343.319,327.47Z" fill="#1a1a1a"/>
            <path id="Path_50" data-name="Path 50" d="M344.655,320.02c-3.5,1.759-7.286,2.4-11.026,3.21-6.354,1.38-12.749,2.524-19.2,3.313a21,21,0,0,1-13.5-2.514c-3.556-2.081-4.186-5.686-4.628-9.316a35.737,35.737,0,0,1-.028-4.209,2.261,2.261,0,0,1,1.362,1.741c1.825,5.524,6.182,7.511,11.433,8.4,4.306.73,8.52.161,12.8-.33C329.418,319.444,337.027,319.785,344.655,320.02Z" fill="#1a1a1a"/>
            <path id="Path_51" data-name="Path 51" d="M326.479,326.492h0c.579,6.282-3.108,11.756-8.233,12.227l-.379.036c-5.12.471-9.746-4.239-10.324-10.522h0" fill="#ea3f3e"/>
            <path id="Path_52" data-name="Path 52" d="M263.347,334.4h0c.366,5.855-4.449,10.921-10.752,11.318l-.466.031c-6.31.394-11.722-4.029-12.091-9.887h0" fill="#ea3f3e"/>
            <path id="Path_53" data-name="Path 53" d="M281.139,352.561c-2.988,4.984-6.144,9.984-11.052,13.187-9.057,5.916-18.481,5.476-27.95.686-6.738-3.407-11.487-8.781-14.925-15.281-2.222-4.2-3.96-8.095-3.679-14.029a63.064,63.064,0,0,0,1.792,6.236c2.2,6.454,6.51,11.008,12.267,14.39a36.37,36.37,0,0,0,18.77,5.435,32.495,32.495,0,0,0,21.568-8.425c.973-.86,3.044-3.84,4.447-4.447Z" fill="#ea3f3e"/>
          </g>
          <g id="Mouth_2" data-name="Mouth 2">
            <path id="Path_54" data-name="Path 54" d="M302.513,438.175c-10.038.046-17.8-9.047-16.719-19.561a33.209,33.209,0,0,1,1.848-8.6c.556-1.449.428-1.989-1.354-2.34-9.9-1.943-17.244-7.291-20.844-16.94-1.7-4.549-1.838-9.285.543-13.76a5.267,5.267,0,0,1,7.537-2.13c3.057,1.731,5.978,3.727,9.129,5.248,5.962,2.875,12.173,3.8,18.537,1.257a29.935,29.935,0,0,0,10.222-7c2.166-2.191,4.375-4.383,7.744-4.7,2.248-.21,4.055.274,5.376,2.289,4.429,6.774,4.506,13.729.87,20.787a25.9,25.9,0,0,1-7.109,8.832c-.919.712-1.226,1.339-.512,2.273.922,1.193,1.508-.015,2.048-.422a19.6,19.6,0,0,0,4.408-4.977c.448-.666.881-1.554,1.8-.855.812.614.054,1.3-.3,1.869a19.945,19.945,0,0,1-5.686,6.108,1.531,1.531,0,0,0-.691,2.092,31.5,31.5,0,0,1,1.1,15.47C318.641,432.366,311.944,438.134,302.513,438.175ZM284.2,401.311c-1.073,3.41-.829,4.037,1.851,4.529.678.123,1.708.7,1.961-.307.218-.863-.594-1.556-1.457-1.9a5.1,5.1,0,0,0-1.044-.233c-1.382-.223-1.444-.945-.768-1.958,4.019.256,5.988,2.7,5.225,6.618-.34,1.759-.911,3.471-1.344,5.212-.847,3.428-1.551,6.912-.883,10.427,1.206,6.333,6.935,12.078,12.692,12.516,7.214.548,13.33-1.764,16.545-8.684a22.351,22.351,0,0,0,1.994-13.194c-1.147-7.122-3.517-13.647-9.687-18.084-2.394-1.723-5.007-2.941-8.028-1.961-2.481.8-2.624,1.536-.95,3.4a8.149,8.149,0,0,1,.7.822c.379.548,1.2,1.075.358,1.807-.8.7-1.3.028-1.738-.558a10.167,10.167,0,0,0-2.842-2.619c-4.913-2.934-10.486-2.785-12.582,4.168Zm-3.82-1.807c.026-2.161-3.855-4.972-5.8-4.314a3.649,3.649,0,0,0-2.258,2.422c-.379,1.1.722,1.439,1.308,1.964.952.852,2.01,1.595,3.036,2.363,2.15,1.615,2.217,1.482,3.374-1.1a7.232,7.232,0,0,0,.34-1.324Zm25.544-12.224a1.919,1.919,0,0,0,.855-.195,10.85,10.85,0,0,1,3.584-1.981c1.065-.276.835-1.746.4-2.836-.484-1.2-1.247-.84-2.086-.55a11.6,11.6,0,0,0-4.285,2.353,1.818,1.818,0,0,0-.74,2.071c.356.957,1.178,1.162,2.271,1.147Zm-19.909-1.958c-.806-.189-1.626-.338-1.792.809a2.994,2.994,0,0,0,3.41,3.087c.415-.087.95-.448,1.208-.3m32.586.049a27.7,27.7,0,0,1-2.532,1.436,2.921,2.921,0,0,0-1.3,4.534c.369.484.814,1.024,1.362.346a50.505,50.505,0,0,0,3.354-4.462c.463-.724.2-1.541-.9-1.846Zm-47.608-9.833a1.85,1.85,0,0,0-1.646,1.792c-.074,1.449,2.378,3.768,3.773,3.459,1.1-.256,2.514-.788,1.869-2.225C277.089,380.534,275.149,380.127,273.82,379.136Zm45.583-3.822c-.256-1.377-.8-1.948-1.812-1.254a29.153,29.153,0,0,0-2.76,2.335.988.988,0,0,0-.23,1.49c.445.584,1.1,1.144,1.807.75,1.431-.8,1.61-2.685,3-3.323Z" fill="#ea3f3e"/>
            <path id="Path_55" data-name="Path 55" d="M284.2,401.318c2.1-6.953,7.68-7.1,12.6-4.16a10.166,10.166,0,0,1,2.842,2.619c.443.586.937,1.254,1.738.558.842-.732.02-1.26-.358-1.807a8.149,8.149,0,0,0-.7-.822c-1.674-1.856-1.536-2.6.95-3.4,3.021-.98,5.632.238,8.028,1.961,6.17,4.436,8.54,10.962,9.687,18.084a22.351,22.351,0,0,1-1.994,13.194c-3.215,6.912-9.331,9.231-16.545,8.684-5.757-.438-11.487-6.182-12.692-12.516-.668-3.51.036-7,.883-10.427.433-1.741,1-3.453,1.344-5.212.768-3.922-1.206-6.364-5.225-6.618Zm30.523,15.636a10,10,0,1,0-2.919,7.091,10.017,10.017,0,0,0,2.919-7.091Zm-13.156,16.8c.712-.23,2.222.558,2.243-.975.018-1.359-1.405-.863-2.235-.922a11.815,11.815,0,0,1-9.684-5.914,41.857,41.857,0,0,1-2.15-4.2c-.256-.561-.556-1.106-1.234-.919-.86.238-.745,1.024-.512,1.608C290.248,428.378,294.213,433.288,301.568,433.759Z" fill="#1a1a1a"/>
            <path id="Path_56" data-name="Path 56" d="M280.381,399.511a7.226,7.226,0,0,1-.34,1.331c-1.157,2.586-1.224,2.719-3.374,1.1-1.024-.768-2.084-1.51-3.036-2.363-.586-.512-1.682-.883-1.308-1.964a3.67,3.67,0,0,1,2.258-2.422C276.526,394.54,280.407,397.35,280.381,399.511Z" fill="#1a1a1a"/>
            <path id="Path_57" data-name="Path 57" d="M305.92,387.287c-1.1.015-1.92-.189-2.281-1.139a1.818,1.818,0,0,1,.74-2.071,11.6,11.6,0,0,1,4.285-2.353c.84-.289,1.6-.653,2.086.55.438,1.091.668,2.56-.4,2.836a10.954,10.954,0,0,0-3.584,1.981A1.963,1.963,0,0,1,305.92,387.287Z" fill="#1a1a1a"/>
            <path id="Path_58" data-name="Path 58" d="M292.375,386.478a.358.358,0,0,1,.282.54c-.84,1.464-1.4,3.328-3.84,1.91-.256-.151-.794.21-1.208.3a2.989,2.989,0,0,1-3.41-3.087c.179-1.147,1-1,1.792-.809A36.809,36.809,0,0,0,292.375,386.478Z" fill="#1a1a1a"/>
            <path id="Path_59" data-name="Path 59" d="M321.416,388.977c1.1.3,1.359,1.121.883,1.853a50.49,50.49,0,0,1-3.354,4.462c-.548.668-.993.138-1.362-.346a2.921,2.921,0,0,1,1.3-4.534,27.692,27.692,0,0,0,2.532-1.436Z" fill="#1a1a1a"/>
            <path id="Path_60" data-name="Path 60" d="M273.82,379.136c1.329.993,3.269,1.4,4,3.021.645,1.436-.768,1.981-1.869,2.225-1.4.31-3.84-2.01-3.773-3.459A1.843,1.843,0,0,1,273.82,379.136Z" fill="#1a1a1a"/>
            <path id="Path_61" data-name="Path 61" d="M319.4,375.311c-1.385.637-1.564,2.524-3,3.328-.712.394-1.341-.143-1.807-.75s-.241-1.073.23-1.49a29.782,29.782,0,0,1,2.76-2.335C318.579,373.386,319.15,373.934,319.4,375.311Z" fill="#1a1a1a"/>
            <path id="Path_62" data-name="Path 62" d="M284.2,401.318l.556.133c-.689,1.024-.627,1.736.768,1.958a5.1,5.1,0,0,1,1.044.233c.863.341,1.674,1.024,1.457,1.9-.256,1.006-1.28.43-1.961.307C283.372,405.356,283.136,404.736,284.2,401.318Z" fill="#1a1a1a"/>
            <path id="Path_63" data-name="Path 63" d="M314.724,416.955a10.017,10.017,0,1,1-10.022-10,10.017,10.017,0,0,1,10.022,10Zm-9.984-8.1a8.082,8.082,0,0,0-8.192,8.192,8.243,8.243,0,0,0,8.138,8.074,8.133,8.133,0,0,0,.049-16.266Z" fill="#ea3f3e"/>
            <path id="Path_64" data-name="Path 64" d="M301.568,433.759c-7.36-.471-11.325-5.376-13.583-11.323-.223-.589-.338-1.37.512-1.608.678-.187.965.358,1.234.919a41.848,41.848,0,0,0,2.15,4.2,11.774,11.774,0,0,0,9.684,5.914c.829.059,2.253-.438,2.235.922C303.8,434.317,302.285,433.528,301.568,433.759Z" fill="#252224"/>
            <path id="Path_65" data-name="Path 65" d="M304.732,408.858a8.133,8.133,0,0,1-.049,16.266,8.243,8.243,0,0,1-8.138-8.074A8.07,8.07,0,0,1,304.732,408.858Zm.3,3.761a4.531,4.531,0,1,0,4.421,4.608A4.59,4.59,0,0,0,305.029,412.618Z" fill="#1a1a1a"/>
            <path id="Path_66" data-name="Path 66" d="M305.029,412.618a4.554,4.554,0,1,1-4.3,2.705,4.59,4.59,0,0,1,4.3-2.705Zm-.069,1.664a2.665,2.665,0,0,0-2.783,2.86c-.082,1.792.881,2.644,2.56,2.752a2.832,2.832,0,0,0,3.008-2.947A2.71,2.71,0,0,0,304.96,414.282Z" fill="#ea3f3e"/>
            <path id="Path_67" data-name="Path 67" d="M304.96,414.282a2.706,2.706,0,0,1,2.783,2.665,2.814,2.814,0,0,1-3.008,2.947c-1.713-.11-2.639-.957-2.56-2.752A2.665,2.665,0,0,1,304.96,414.282Z" fill="#1a1a1a"/>
            <path id="Path_68" data-name="Path 68" d="M304.312,416.256a1,1,0,0,1,1.231-.061.988.988,0,0,1,.34.717c.064.694-.256,1.088-.968,1.07a.918.918,0,0,1-1.024-.87.98.98,0,0,1,.42-.855Z" fill="#ea3f3e"/>
            <path id="Path_69" data-name="Path 69" d="M319,367.834a8.922,8.922,0,0,1,4.242.384,9.359,9.359,0,0,1,5.015,4.352" fill="none" stroke="#1a1a1a" stroke-linecap="round" stroke-miterlimit="10" stroke-width="1.725"/>
            <path id="Path_70" data-name="Path 70" d="M273.613,372.25a8.118,8.118,0,0,0-10.24,3.638" fill="none" stroke="#1a1a1a" stroke-linecap="round" stroke-miterlimit="10" stroke-width="1.725"/>
          </g>
        </g>
      </g>
    </g>
  </g>
</svg>
