<svg id="d2e_right" data-name="d2e right" xmlns="http://www.w3.org/2000/svg" width="2001.61" height="2000" viewBox="0 0 2001.61 2000">
  <g id="Blank">
    <rect id="Rectangle_2" data-name="Rectangle 2" width="2000" height="2000" fill="none"/>
  </g>
  <g id="Other">
    <g id="Dare_to_enter" data-name="Dare to enter">
      <path id="Path_50" data-name="Path 50" d="M1415.72,1521.08v22.61h-63c.11-.36.21-.73.3-1.09s.24-.89.35-1.33c.16-.62.3-1.24.44-1.86s.31-1.43.44-2.15c.08-.42.16-.83.22-1.24s.13-.72.18-1.09c.15-1,.28-1.89.38-2.83.13-1.14.23-2.28.31-3.41,0-.71.08-1.42.1-2.13a71,71,0,0,0-4.11-26.26c-.37-1-.76-2.07-1.18-3.09-.18-.46-.37-.92-.57-1.37-.12-.28-.24-.56-.37-.84-.24-.55-.49-1.09-.75-1.63-.1-.22-.21-.43-.31-.65l-.24-.49c-.39-.79-.79-1.57-1.21-2.34-.3-.55-.6-1.1-.91-1.65l-1-1.63c-.32-.53-.65-1.07-1-1.6s-.69-1.06-1-1.58a10.824,10.824,0,0,0-1-1.38c-.46-.66-.94-1.31-1.42-2a15.746,15.746,0,0,0-1-1.22c-.37-.4-.74-.94-1.12-1.4l-.18-.21c-.16-.19-.32-.39-.49-.58-.6-.72-1.22-1.42-1.86-2.11h0v-10.76h7.38c.94,1.75,1.88,3.53,2.82,5.32a70,70,0,0,0,13.81,15.63c2.61,1.7,5.33,3.74,8.11,5.92,1.15.73,2.33,1.44,3.54,2.11,10.27,5.72,20.17,12,29.9,18.51Q1408.59,1516.11,1415.72,1521.08Z" fill="#4d4d4d"/>
      <g id="Body_1" data-name="Body 1">
        <path id="Path_51" data-name="Path 51" d="M1361.29,1516.41a157.392,157.392,0,0,0-10-16.15c-.37-1-.76-2.07-1.18-3.09-.18-.46-.37-.92-.57-1.37-.12-.28-.24-.56-.37-.84-.24-.55-.49-1.09-.75-1.63l-.06-.15c-.09-.16-.17-.33-.25-.5l-.24-.49c-.39-.79-.79-1.57-1.21-2.34-.3-.55-.6-1.1-.91-1.65l-1-1.63c-.32-.53-.65-1.07-1-1.6s-.69-1.06-1-1.58a10.824,10.824,0,0,0-1-1.38c-.46-.66-.94-1.31-1.42-2a15.746,15.746,0,0,0-1-1.22c-.37-.4-.74-.94-1.12-1.4l-.18-.21c-.16-.19-.32-.39-.49-.58-.6-.72-1.22-1.42-1.86-2.11h0c-.34-.38-.69-.75-1-1.11s-.87-.91-1.32-1.35l-.45-.45-.06-.06c-.4-.4-.82-.8-1.24-1.19l-1.43-1.31q-.72-.64-1.47-1.26l-.74-.62c-.45-.38-.92-.75-1.38-1.12q-1.23-1-2.49-1.86c-.42-.31-.84-.6-1.27-.89l-1.29-.87-1.31-.83q-1.95-2.4-3.89-4.88c-.44-.56-.88-1.13-1.31-1.7q-.87-1.11-1.71-2.25-2.78-3.65-5.45-7.46h0l1,.31c.48.13,1,.28,1.43.43l2.41.8c.8.28,1.59.57,2.39.88s1.58.62,2.37,1,1.58.66,2.36,1,1.56.72,2.34,1.1c.61.29,1.22.6,1.83.92.45.22.89.46,1.34.71s1.15.82,1.39.76h0a1.42,1.42,0,0,0,.59-.71h0a.94.94,0,0,0-.13-.74,3.608,3.608,0,0,0-.8-.88c-1.51-9.52-3-19-4.54-28.52a17.548,17.548,0,0,1-.27-2.93c5.63,11.78,10.74,23.6,16.55,35.37.66,1.19,1.32,2.41,2,3.62h0v.16h0q1.15,2.65,2.51,5.17c1,1.83,2,3.6,3.14,5.32C1353.79,1484.06,1360.73,1500.24,1361.29,1516.41Z" fill="#252728"/>
        <path id="Path_52" data-name="Path 52" d="M1320.31,1461.61a63.579,63.579,0,0,0-35.6-9.95c-2.75.09-5.53-.46-8.3-.5-3.63-.05-7.56,0-7.2-5,.34-4.66,4.32-4.66,7.86-4.71h5.56c.93,0,1.85.06,2.77.11l2.76.18c2.45.19,4.88.47,7.3.82l1.58.25c.44.07.88.14,1.32.23,1.2.21,2.4.45,3.59.7l1.32.3h.09c.5.11,1,.24,1.5.37l1.55.4,1.53.42h0q2.68,3.83,5.45,7.46.84,1.14,1.71,2.25c.43.57.87,1.14,1.31,1.7Q1318.36,1459.21,1320.31,1461.61Z" fill="#252728"/>
        <path id="Path_53" data-name="Path 53" d="M1361.11,1523.31q-2.89,1.53-5.7,3.21a71,71,0,0,0-4.11-26.26,157.405,157.405,0,0,1,10,16.15,56.772,56.772,0,0,1-.19,6.9Z" fill="#252728"/>
        <path id="Path_54" data-name="Path 54" d="M1305.79,1577.68c-.67,1.1-1.33,2.2-2,3.31-8.39-4-15-12-20.46-20,1.66,2,3.34,3.94,5.11,5.83a38,38,0,0,0,17.35,10.86Z" fill="#252728"/>
        <path id="Path_55" data-name="Path 55" d="M1361.11,1523.31c-.13,1.52-.3,3-.56,4.55-.23.84-.47,1.67-.69,2.5-.68,2.51-1.33,5-2,7.47-.26,1-.52,2-.79,3s-.51,1.91-.77,2.86q-.88,3.24-1.87,6.35c-.22.69-.45,1.37-.68,2-.14.42-.28.85-.44,1.27-.48,1.37-1,2.71-1.55,4-.18.45-.38.9-.58,1.34,0,.13-.11.26-.17.39-.25.55-.51,1.09-.77,1.63a42.923,42.923,0,0,1-7.51,11q-.73.76-1.53,1.5l-.07.07-.78.69c-.19.17-.38.34-.58.5l-.79.64a37.693,37.693,0,0,1-4.65,3.12c-.48.27-1,.54-1.46.8l-1,.51-.76.35-.71.32c-.56.25-1.13.48-1.71.71-1.17.46-2.39.88-3.67,1.27a27.459,27.459,0,0,1-21.22-1.2c.66-1.11,1.32-2.21,2-3.31,14.82,4.22,31-1.84,39.86-17.42.4-.7.78-1.4,1.16-2.1.72-1.36,1.39-2.73,2-4.09a72.869,72.869,0,0,0,3.22-8.31c.2-.63.4-1.26.58-1.89v-.18h0c.11-.36.21-.73.3-1.09s.24-.89.35-1.33c.16-.62.3-1.24.44-1.86s.31-1.43.44-2.15c.08-.42.16-.83.22-1.24s.13-.72.18-1.09c.15-1,.28-1.89.38-2.83.13-1.14.23-2.28.31-3.41,0-.71.08-1.42.1-2.13Q1358.22,1524.84,1361.11,1523.31Z" fill="#252728"/>
        <path id="Path_56" data-name="Path 56" d="M1340.25,1458.38c-.68-1.21-1.34-2.43-2-3.62-5.81-11.77-10.92-23.59-16.55-35.37,0-2.17.77-4,3.68-4.35,4.69-.6,5.28,3.1,5.9,6.73,1.47,8.47,2.7,17,5,25.3.18.65.37,1.3.56,1.94.25.82.51,1.64.78,2.45.32,1,.66,1.91,1,2.85.17.46.35.93.54,1.4Q1339.68,1457.06,1340.25,1458.38Z" fill="#252728"/>
        <path id="Path_57" data-name="Path 57" d="M1332.81,1356.63q-7.07,1.21-14,2.87c1.83-1.79,3.65-3.61,5.4-5.48a35.63,35.63,0,0,1,6.44,1.73A22.75,22.75,0,0,1,1332.81,1356.63Z" fill="#252728"/>
        <path id="Path_58" data-name="Path 58" d="M1324.23,1354c-1.75,1.87-3.57,3.69-5.4,5.48q-9.13,2.19-18,5.16C1305.87,1356.72,1313.56,1352.23,1324.23,1354Z" fill="#252728"/>
        <path id="Path_59" data-name="Path 59" d="M1325,1582.19c26.54-8.07,29-31.06,35.53-54.33.26-1.51.43-3,.56-4.55a123.464,123.464,0,0,1,37.09-12.52c.46.11.93.23,1.39.3,23.75,15,40.2,44.62,23.4,68.4a105,105,0,0,1-19.8,22.54c-15.41,11.21-32.67,19-49.82,27.11a178.733,178.733,0,0,1-32.55,7.27,17.144,17.144,0,0,1-4.66.16c3.76-1.79,7.51-3.63,11.22-5.58,25.62-13.47,53.45-22.86,76.22-41.49,9.75-8,16.25-17.57,18-30.24,1.64-12.18-1.3-22.37-11.46-30.26-12.52-9.72-26.24-12-41.22-7.59-3.71,1.09-4.18,4.19-4.17,7.44,0,10.22-3.89,19.4-7.09,28.84-7.06,20.77-24.19,28.16-43.44,32.19a22.1,22.1,0,0,1-13.69-1.82c.5-1.44,1.06-2.87,1.69-4.27.54-.94,1.08-1.87,1.63-2.8a27.46,27.46,0,0,0,21.17,1.2Z" fill="#252728"/>
        <path id="Path_60" data-name="Path 60" d="M1399.59,1511.09Z" fill="#252728"/>
        <path id="Path_61" data-name="Path 61" d="M1479,1567.81c-2,4.33-5.54,3.44-8.75,1.41-10.84-6.86-21.59-13.87-32.39-20.79-1.69-1.08-3.2-3.12-5.46-2.3-2.65.95-1.63,3.42-1.47,5.33a48.921,48.921,0,0,1-2,19c-.15.48-.31,1-.49,1.43-3.42,9.69-10,17.91-18.85,25.2-2.09,1.73-4.22,3.35-6.39,4.92l.33-.29.15-.13.17-.15c.45-.4.9-.79,1.33-1.19l.24-.21c.73-.67,1.45-1.34,2.16-2l.79-.76q.82-.8,1.62-1.62l.52-.53.19-.2.08-.09.86-.9.93-1,.29-.32c.7-.76,1.37-1.52,2-2.3L1416,1589c.71-.86,1.4-1.73,2.09-2.61.34-.43.67-.87,1-1.31s.65-.88,1-1.33h0l1-1.37.89-1.29a.706.706,0,0,1,.1-.14c.32-.48.64-1,1-1.45.19-.28.38-.54.55-.81a2.181,2.181,0,0,0,.13-.19l.18-.27.08-.13c.25-.39.49-.77.72-1.16h0c.24-.4.47-.81.69-1.21a.411.411,0,0,0,.05-.09c.16-.28.31-.56.44-.84h0v-.05h0c0-.08.09-.16.13-.24a2.539,2.539,0,0,0,.18-.37,1.619,1.619,0,0,0,.11-.23v-.06h0c0-.1.09-.2.14-.3a.21.21,0,0,0,0-.07h0v-.08h0a.091.091,0,0,1,0-.06c.08-.17.15-.34.22-.5l.21-.49a.953.953,0,0,1,.14-.35c.16-.39.3-.77.44-1.16h0a2.025,2.025,0,0,1,.14-.44c.12-.32.23-.64.33-1s.27-.88.39-1.33l.21-.81.12-.52c.12-.52.23-1,.32-1.57a.278.278,0,0,0,0-.09,3.041,3.041,0,0,1,.09-.51c.03-.17.05-.33.08-.5a36.009,36.009,0,0,0,.4-5.38v-1.75c0-.52-.06-1-.1-1.57s-.09-.87-.15-1.31a4.925,4.925,0,0,0-.1-.77c-.07-.54-.16-1.08-.25-1.62s-.16-.85-.25-1.27l-.06-.3c-.23-1-.5-2.1-.82-3.14a1.613,1.613,0,0,0-.1-.36c-.15-.48-.3-1-.47-1.44s-.36-1-.56-1.58l-.08-.2c-.16-.42-.33-.83-.5-1.25,0-.13-.11-.25-.16-.38a.551.551,0,0,0,0-.11c-.12-.29-.25-.58-.38-.87l-.09-.2c-.1-.23-.21-.46-.32-.69-.19-.41-.39-.82-.59-1.23l-.06-.12c-.25-.49-.5-1-.77-1.47v-.05c-.26-.48-.53-1-.8-1.44s-.68-1.15-1-1.71-.53-.84-.81-1.26-.6-.9-.91-1.34l-.62-.88v-.06l-.1-.14-.18-.25-.12-.16h0c-.15-.2-.29-.4-.44-.59l-.46-.6-.06-.08v-.07c-.32-.41-.64-.81-1-1.21l-.39-.47c-.12-.16-.26-.32-.39-.47l-.79-.92-.68-.76q-.43-.5-.9-1c-.36-.39-.73-.78-1.11-1.16a1.873,1.873,0,0,0-.2-.2c-.44-.45-.88-.89-1.34-1.33l-1.07-1c-.43-.41-.87-.8-1.32-1.2h0l-.87-.76c-.4-.35-.81-.69-1.23-1l-1.18-1c-.93-.73-1.87-1.44-2.83-2.12s-2.18-1.51-3.3-2.22h0c.59.08,1.16.14,1.73.16q7.23,4.85,14.36,9.82c19.51,13.56,38.72,27.55,59.25,39.55C1477.69,1562.22,1480.84,1563.94,1479,1567.81Z" fill="#252728"/>
        <path id="Path_62" data-name="Path 62" d="M1159.21,1559.13c-15.68,1.21-32.17.29-41.93-14.05-17.53-25.73-16.33-45.31,5.66-65,17.83-16,40.65-21.39,62.61-28.61,5.54-1.82,6.55,1.39,6.91,5.75,1,12.51,6.72,23,14.67,32.5,13.14,15.61,26,31.46,39.75,46.55,6,6.62,4.48,7.88-3.16,9.79C1216.09,1552.92,1187.65,1554.54,1159.21,1559.13ZM2000.64,1339c-95.64,44.83-349,155.73-356.72,160.14l-2.14,1.21c-.71.41-1.43.81-2.15,1.2l-1.2.66-.27.15c-.58.33-1.17.64-1.75.95l-.19.1-.53.28-.39.22-.14.07-.79.42-1,.54h-.09c-1.31.7-2.62,1.38-3.94,2.06-.67.36-1.35.71-2,1l-2,1-2.14,1.07-1.69.83-2.7,1.32-1.6.77-.62.3-2.15,1-1.36.64-3.32,1.55-1.23.57-.9.41c-1.82.84-3.65,1.68-5.47,2.5l-1.24.56c-1.65.75-3.31,1.49-5,2.22l-1.16.51c-2.29,1-4.59,2-6.88,3l-1.91.84-5,2.16-9.12,4-4.83,2.1-5.12,2.25c-5.12,2.26-6.84.32-7.92-4.21q-2.145-9-4.69-18c-.73-2.57-2.65-4.17-5.5-3.51s-4,2.76-3.62,5.45a4.13,4.13,0,0,0,.12.76c.09.5.21,1,.34,1.5.34,1.24.76,2.48,1.12,3.72,13.5,46.93-4,88.32-47.26,111.4a251.145,251.145,0,0,1-27.46,12.56l-1.15.45a295.026,295.026,0,0,1-35.18,10.94q-4.62,1.14-9.28,2.15c-22.8,4.94-45.2,10.73-65.07,22.64a116.192,116.192,0,0,0-15.41,11c-20.54,17.39-41,34.8-60.63,53.24-31.54,29.69-67.1,50.36-112.2,51.66-25,.72-44.64-8.36-59.49-28-9-11.91-8.71-21.58.88-32.75a118.818,118.818,0,0,1,12.08-12.18c1.59-1.39,3.22-2.73,4.88-4a134.245,134.245,0,0,1,27.14-16.34l2-.88c1.31-.58,2.64-1.14,4-1.69,2-.82,4-1.61,6.1-2.36,57-20.86,116.28-36,170.66-63.86,5.63-2.88,11.35-5.6,17.08-8.29a178.733,178.733,0,0,1-32.55,7.27,17.135,17.135,0,0,1-4.66.16c-37.33,17.74-77,27.68-118,33.51-5.19.37-10.37,1-15.56,1.06-38.8.77-57.17-39.14-39.64-68.74,6.23-10.52,16-16.9,26.57-22.31,25.75-13.23,53.46-20.48,81.81-25.81,9.06-1.71,16,0,21.28,8.41,5,7.93,11.74,14.52,19.29,20.2a43.073,43.073,0,0,0,8.56,5.17c.5-1.44,1.06-2.87,1.69-4.27.54-.94,1.08-1.87,1.63-2.8-8.39-4-15-12-20.46-20-5.4-6.47-10.45-13.22-16.74-19.06a413.192,413.192,0,0,1-57.55-66.68c-10.84-15.57-10.43-32.57.34-49.37a96.8,96.8,0,0,1,9.17-12.06,22.78,22.78,0,0,1,3.23-6.94c6.06-9.89,15-19.52,25.77-28h0c.84-.67,1.69-1.31,2.55-2-12.59,6.82-24.47,14.42-34.44,24.32h0c-.16.14-.31.3-.46.45a90.1,90.1,0,0,0-12.11,15c-.56.87-1.49,1.65-1.68,2.58-3.89,19.23-18.76,24.39-35.39,28.65-16.82,4.31-32.72,11.27-46.44,22.32-26.62,21.43-30.8,50.38-11.5,78.77,8.53,12.56,21.27,17.49,35.39,19.28,7.82,1,15.87.22,25.68.24-6.21,4-11.32,7.08-16.23,10.45-27.91,19.19-34.28,52.77-15.06,80.68,8.6,12.49,21.18,18.63,36.09,20.14,6.18.63,12.41.78,19.18,2.84-8.63,2.8-17.16,5.9-25.89,8.36-25,7-46,20.48-63.41,39.45-14.21,15.52-14.54,32-1.43,48.55,17.52,22.1,40.55,31.48,68.55,30.1,44.22-2.17,80.29-21.6,111.89-50.78,20.28-18.73,41.29-36.64,62.1-54.78a109.191,109.191,0,0,1,15.66-11.34c21.32-12.79,45.55-18.08,69.81-23.6,1.5-.34,3-.7,4.5-1.06a277.5,277.5,0,0,0,35.2-11l1.17-.46a250.51,250.51,0,0,0,28-13.11c34.22-18.74,54.66-46.73,56.58-86.51.17-3.53.32-6.19,4.56-8,30-12.53,59.75-25.63,88.17-41.44.44-.25,1.87-.74,3.69-1.62,3.09-1.61,23.32-10.64,28-12.88l321.26-138.69v-15.28Z" fill="#252728"/>
        <path id="Path_63" data-name="Path 63" d="M2001.51,1207.26V1219c-11.55,5.45-366.93,178.9-378.46,184.41q-10.52,5-21,10c-10.53,5-21,10-31.49,15.2s-20.83,10.48-31.07,16c-8.77,4.76-10.93,10.2-8,19a63.84,63.84,0,0,1,2.22,11.12c.57,3.92.64,8.36-4.5,8.75-4.79.36-4.5-4-5.07-7.44-1.41-8.46-2-17.13-5.39-25.14-13.41-31.68-36.84-54.13-67.34-69.14-32.52-16-65.93-30.82-103.34-27.24-5.14.49-10.21,1.17-15.24,2-.7-.32-1.42-.62-2.14-.88a35.636,35.636,0,0,0-6.44-1.73c-10.67-1.79-18.36,2.7-23.4,10.64a242.561,242.561,0,0,0-48.18,22.35c-12.8,7.68-24.45,16-34.09,26.85a22.776,22.776,0,0,1,3.23-6.94c6.06-9.89,15-19.52,25.77-28h0c.84-.67,1.69-1.31,2.55-2,1.43-.78,2.86-1.54,4.3-2.3,10.35-5.42,20.88-10.67,31.6-15.2h0a218.38,218.38,0,0,1,23.28-8.44c3-.87,5.92-1.67,8.9-2.36l1-.25a127.779,127.779,0,0,1,37.87-3.2c67.84,4.9,126.94,29.45,165.18,90,1.63,2.59,2.63,6.45,6.7,3.13,7.13-5.83,16.13-7.75,24.19-11.64C1587.7,1410.06,1966.93,1223.79,2001.51,1207.26Z" fill="#252728"/>
        <path id="Path_64" data-name="Path 64" d="M1361.29,1516.41l.55,1a19.359,19.359,0,0,0,2-9.08c1.7,3.44,5.41,2.85,15.72,1.14l-17.22-11.17c-1.19-4.78-2.69-9.49-3-13.89l.5.32a72.406,72.406,0,0,0,8.11,5.92c10.21,8,21.21,17.94,30.28,20.15a123.46,123.46,0,0,0-37.09,12.52A56.757,56.757,0,0,0,1361.29,1516.41Z" fill="#252728"/>
        <path id="Path_65" data-name="Path 65" d="M1401.36,1511.26a12.93,12.93,0,0,1-1.73-.16h0l-.67-.43-.72.13c-9.07-2.21-20.07-12.13-30.28-20.15,1.15.73,2.33,1.44,3.54,2.11C1381.73,1498.47,1391.63,1504.74,1401.36,1511.26Z" fill="#252728"/>
        <path id="Path_66" data-name="Path 66" d="M1398.92,1510.66l.67.43c-.46-.07-.93-.19-1.39-.3Z" fill="#252728"/>
        <path id="Path_67" data-name="Path 67" d="M1363.84,1508.32a19.362,19.362,0,0,1-2,9.08l-.55-1c-.56-16.17-7.5-32.35-15.29-47.32a70,70,0,0,0,13.81,15.63l-.5-.32c.34,4.4,1.84,9.11,3,13.89l-.29-.19C1362.55,1503.16,1362.88,1506.37,1363.84,1508.32Z" fill="#252728"/>
        <path id="Path_68" data-name="Path 68" d="M1346,1469.09c-1.12-1.72-2.16-3.49-3.14-5.32s-1.74-3.4-2.51-5.17c.94,1.71,1.89,3.42,2.83,5.17S1345.06,1467.3,1346,1469.09Z" fill="#8d8d90"/>
        <path id="Path_69" data-name="Path 69" d="M1367.92,1490.64a72.375,72.375,0,0,1-8.11-5.92C1362.42,1486.42,1365.14,1488.46,1367.92,1490.64Z" fill="#8d8d90"/>
        <path id="Path_70" data-name="Path 70" d="M1403.19,1602c-14.43,12.45-31.91,21.32-49.82,27.11C1370.52,1621.08,1387.78,1613.24,1403.19,1602Z" fill="#8d8d90"/>
        <path id="Path_71" data-name="Path 71" d="M1421.55,1559.26c-1.7,12.67-8.2,22.26-18,30.24-22.77,18.63-50.6,28-76.22,41.49-3.71,2-7.46,3.79-11.22,5.58-37.33,17.74-77,27.68-118,33.51-5.19.37-10.37,1-15.56,1.06-38.8.77-57.17-39.14-39.64-68.74,6.23-10.52,16-16.9,26.57-22.31,25.75-13.23,53.46-20.48,81.81-25.81,9.06-1.71,16,0,21.28,8.41,5,7.93,11.74,14.52,19.29,20.2a43.073,43.073,0,0,0,8.56,5.17,22.1,22.1,0,0,0,13.69,1.82c19.25-4,36.38-11.42,43.44-32.19,3.21-9.44,7.14-18.62,7.09-28.84,0-3.25.46-6.35,4.17-7.44,15-4.38,28.7-2.13,41.22,7.59C1420.25,1536.89,1423.19,1547.08,1421.55,1559.26Z" fill="#8d8d90"/>
        <path id="Path_72" data-name="Path 72" d="M1340.33,1458.56v-.1a.138.138,0,0,1,0-.06v.06Z" fill="#8d8d90"/>
        <path id="Path_73" data-name="Path 73" d="M2001.51,1219v119.62l-.87.41c-95.64,44.83-349,155.73-356.72,160.14l-2.14,1.21c-.71.41-1.43.81-2.15,1.2l-1.2.66-.27.15c-.58.33-1.17.64-1.75.95l-.19.1-.53.28-.39.22-.14.07-.79.42-1,.54h-.09c-1.31.7-2.62,1.38-3.94,2.06-.67.36-1.35.71-2,1l-2,1-2.14,1.07-1.69.83-2.7,1.32-1.6.77-.62.3-2.15,1-1.36.64-3.32,1.55-1.23.57-.9.41c-1.82.84-3.65,1.68-5.47,2.5l-1.24.56-6.12,2.73c-2.29,1-4.59,2-6.88,3l-1.91.84-5,2.16-9.12,4-4.83,2.1-5.12,2.25c-5.12,2.26-6.84.32-7.92-4.21q-2.145-9-4.69-18c-.73-2.57-2.65-4.17-5.5-3.51s-4,2.76-3.62,5.45a4.13,4.13,0,0,0,.12.76c.09.5.21,1,.34,1.5.34,1.24.76,2.48,1.12,3.72,13.5,46.93-4,88.32-47.26,111.4a251.157,251.157,0,0,1-27.46,12.56l-38-77a48.922,48.922,0,0,0,2-19c-.16-1.91-1.18-4.38,1.47-5.33,2.26-.82,3.77,1.22,5.46,2.3,10.8,6.92,21.55,13.93,32.39,20.79,3.21,2,6.71,2.92,8.75-1.41,1.83-3.87-1.32-5.59-4-7.18-20.53-12-39.74-26-59.25-39.55q-7.14-5-14.36-9.82c-9.73-6.52-19.63-12.79-29.9-18.51-1.21-.67-2.39-1.38-3.54-2.11-2.78-2.18-5.5-4.22-8.11-5.92a70.007,70.007,0,0,1-13.81-15.63c-.94-1.79-1.88-3.57-2.82-5.32s-1.89-3.46-2.83-5.17h0v-.16h0q-.57-1.32-1.11-2.67c-.19-.47-.37-.94-.54-1.4-.35-.94-.69-1.89-1-2.85-.27-.81-.53-1.63-.78-2.45-.19-.64-.38-1.29-.56-1.94-2.27-8.27-3.5-16.83-5-25.3-.62-3.63-1.21-7.33-5.9-6.73-2.91.37-3.66,2.18-3.68,4.35a17.548,17.548,0,0,0,.27,2.93c1.54,9.5,3,19,4.54,28.52a3.607,3.607,0,0,1,.8.88,4.578,4.578,0,0,0,.13.74h0a1.42,1.42,0,0,1-.59.71h0c-.46-.26-.93-.52-1.39-.76s-.89-.49-1.34-.71c-.61-.32-1.22-.63-1.83-.92-.78-.38-1.56-.75-2.34-1.1s-1.57-.7-2.36-1-1.58-.65-2.37-1-1.59-.6-2.39-.88l-2.41-.8c-.47-.15-.95-.3-1.43-.43l-1-.31-1.53-.42c-.52-.15-1-.28-1.55-.4s-1-.26-1.5-.37h-.09l-1.32-.3c-1.19-.25-2.39-.49-3.59-.7-.44-.09-.88-.16-1.32-.23l-1.58-.25c-2.42-.35-4.85-.63-7.3-.82l-2.76-.18c-.92,0-1.85-.09-2.77-.11-1.85-.06-3.7-.08-5.56,0-3.54,0-7.52,0-7.86,4.71-.36,5,3.57,4.94,7.2,5,2.77,0,5.55.59,8.3.5a63.583,63.583,0,0,1,35.6,9.95l1.31.83,1.29.87,1.27.89q1.26.9,2.49,1.86c.46.37.93.74,1.38,1.12l.74.62q.75.62,1.47,1.26l1.43,1.31c.42.39.83.79,1.24,1.19l.06.06.45.45q.68.66,1.32,1.35a14.743,14.743,0,0,1,1,1.11h0c.64.69,1.26,1.39,1.86,2.11.17.19.33.39.49.58l.18.21c.38.46.76.93,1.12,1.4s.64.81,1,1.22a22.457,22.457,0,0,1,1.42,2c.32.45.64.91,1,1.38a10.661,10.661,0,0,1,1,1.58c.3.58.67,1.07,1,1.6l1,1.63c.31.55.61,1.1.91,1.65.42.77.82,1.55,1.21,2.34l.24.49c.1.22.21.43.31.65.26.54.51,1.08.75,1.63.13.28.25.56.37.84.2.45.39.91.57,1.37.42,1,.81,2,1.18,3.09a71,71,0,0,1,4.11,26.26c0,.71-.06,1.42-.1,2.13-.08,1.13-.18,2.27-.31,3.41-.1.94-.23,1.88-.38,2.83a5.762,5.762,0,0,1-.18,1.09c-.07.36-.14.82-.22,1.24-.13.72-.28,1.43-.44,2.15s-.28,1.24-.44,1.86c-.11.44-.22.89-.35,1.33s-.19.73-.3,1.09h0v.18c-.18.63-.38,1.26-.58,1.89a72.849,72.849,0,0,1-3.22,8.31c-.63,1.36-1.3,2.73-2,4.09-.38.7-.76,1.4-1.16,2.1-8.86,15.58-25,21.64-39.86,17.42a38,38,0,0,1-17.34-10.82c-1.77-1.89-3.45-3.85-5.11-5.83-5.4-6.47-10.45-13.22-16.74-19.06a413.207,413.207,0,0,1-57.55-66.68c-10.84-15.57-10.43-32.57.34-49.37a96.8,96.8,0,0,1,9.17-12.06c9.64-10.82,21.29-19.17,34.09-26.85a242.557,242.557,0,0,1,48.18-22.35q8.88-3,18-5.16,6.92-1.66,14-2.87c5-.86,10.1-1.54,15.24-2,37.41-3.58,70.82,11.24,103.34,27.24,30.5,15,53.93,37.46,67.34,69.14,3.39,8,4,16.68,5.39,25.14.57,3.43.28,7.8,5.07,7.44,5.14-.39,5.07-4.83,4.5-8.75a63.84,63.84,0,0,0-2.22-11.12c-3-8.83-.8-14.27,8-19q15.36-8.34,31.07-16c10.45-5.13,21-10.19,31.49-15.2q10.53-5,21-10C1634.58,1397.9,1990,1224.45,2001.51,1219Z" fill="#8d8d90"/>
        <path id="Path_74" data-name="Path 74" d="M1467,1647.48l-1.15.45a295,295,0,0,1-35.18,10.94q-4.62,1.14-9.28,2.15c-22.8,4.94-45.2,10.73-65.07,22.64a116.189,116.189,0,0,0-15.41,11c-20.54,17.39-41,34.8-60.63,53.24-31.54,29.69-67.1,50.36-112.2,51.66-25,.72-44.64-8.36-59.49-28-9-11.91-8.71-21.58.88-32.75a118.781,118.781,0,0,1,12.08-12.18c1.59-1.39,3.22-2.73,4.88-4a134.245,134.245,0,0,1,27.14-16.34l2-.88c1.31-.58,2.64-1.14,4-1.69,2-.82,4-1.61,6.1-2.36,57-20.86,116.28-36,170.66-63.86,5.63-2.88,11.35-5.6,17.08-8.29,1-.32,2-.65,3-1l1.15-.4h0l2.55-.92c1.11-.41,2.22-.83,3.32-1.27q3.31-1.29,6.57-2.76c.8-.35,1.61-.72,2.4-1.1l.17-.08h.11l.15-.07h.09l.28-.13.2-.09c1-.48,2.05-1,3.06-1.5s2.12-1.08,3.17-1.65c.53-.27,1.05-.55,1.57-.85s1-.58,1.57-.88q1.48-.82,2.94-1.71l.41-.25h0c.41-.24.81-.49,1.22-.75a4.714,4.714,0,0,0,.48-.3h.06c.62-.38,1.24-.77,1.84-1.17.1,0,.19-.12.29-.18l.35-.23c.5-.33,1-.66,1.49-1l.57-.39c1.09-.74,2.16-1.5,3.23-2.28.67-.49,1.34-1,2-1.5l.76-.59c.3-.22.59-.45.88-.68l.88-.71.29-.23.67-.55q1.05-.86,2.07-1.74h0c2.17-1.57,4.3-3.19,6.39-4.92,8.84-7.29,15.43-15.51,18.85-25.2.18-.47.34-1,.49-1.43Z" fill="#8d8d90"/>
        <path id="Path_75" data-name="Path 75" d="M1636.22,1503.44l-.92.5.39-.22Z" fill="#8d8d90"/>
        <path id="Path_76" data-name="Path 76" d="M2001.51,1338.62a4,4,0,0,1-.86.73c-19.91,13.74-348.49,155.1-357.72,160.39-.38.22-.76.44-1.15.64l2.14-1.21c7.71-4.41,261.08-115.31,356.72-160.14Z" fill="#8d8d90"/>
        <path id="Path_77" data-name="Path 77" d="M1307.94,1445.31l1,.31-1-.3Z" fill="#8d8d90"/>
        <path id="Path_78" data-name="Path 78" d="M1327.31,1451.72a3.607,3.607,0,0,0-.8-.88c-1.51-9.52-3-19-4.54-28.52C1323.49,1431.67,1325.69,1442.16,1327.31,1451.72Z" fill="#8d8d90"/>
        <path id="Path_79" data-name="Path 79" d="M1327.79,1454.57s-.9-1.34-.92-1.34h-.06a1.42,1.42,0,0,0,.59-.71C1327.56,1453.18,1327.68,1453.88,1327.79,1454.57Z" fill="#8d8d90"/>
        <path id="Path_80" data-name="Path 80" d="M1307.94,1445.31h0l-1.54-.43Z" fill="#8d8d90"/>
        <path id="Path_81" data-name="Path 81" d="M1243.72,1546c-27.63,6.91-56.07,8.53-84.51,13.12-15.68,1.21-32.17.29-41.93-14.05-17.53-25.73-16.33-45.31,5.66-65,17.83-16,40.65-21.39,62.61-28.61,5.54-1.82,6.55,1.39,6.91,5.75,1,12.51,6.72,23,14.67,32.5,13.14,15.61,26,31.46,39.75,46.55C1252.9,1542.84,1251.36,1544.1,1243.72,1546Z" fill="#8d8d90"/>
      </g>
      <path id="Path_82" data-name="Path 82" d="M293.51,945.39l-.14.11h0Z" fill="#d8d8d8"/>
      <path id="Path_83" data-name="Path 83" d="M150.6,658.33q80.35-35.8,160.7-71.61c37.19-16.63,74.27-33.49,111.47-50.11,11.42-5.11,23.88-4.1,36-4.61,7-.3,12.34-1.67,14.58-9.09,2.57-8.52,9-12.89,16.93-16.6,113-52.67,227.27-102.44,339.12-157.38,113.18-55.58,226.32-111.27,337-171.61,43-23.45,86.17-46.62,129-70.44,9-5,12.73-3.88,17.72,5.39,14,26,28.93,51.59,45.71,76,.32,1.15.64,2.31,1,3.47-19.22,14.92-39,29.23-55.12,47.55l2.25,3.67c13.28-6.88,26.65-13.61,39.84-20.67,19.33-10.35,19.59-10.62,30.35,8.33,55.27,97.41,108.5,195.87,158.86,295.86,9.53,18.93,17.33,38.86,29.87,56.27l.42,5.48c-8.87,5.19-16.18,12.27-23.47,19.33-2.35,2.28-5.23,5.06-3.2,8.81,2.16,4,5.86,2.33,9.09,1.53,1.88-.47,3.64-1.41,5.53-1.8,24-5,24.68-4.09,35.17,18,34.56,72.68,67.66,146,98.75,220.17,12.49,29.82,22.23,60.76,37,89.67-.86,3.51-4.17,3.59-6.74,4.71q-69.255,30-138.49,60.19c-11.73,5.14-23.13,10.09-35.81,2.88-3.43-2-6.41-.4-9.57,1.16-15.16,7.53-30.71,14.34-45.57,22.41-41.68,22.64-83.36,45.32-124.47,69-15.51,8.92-35.28,11.74-46.92,25.12-14.4,16.57-32.89,24.56-51.51,33.79-10.55,5.23-23.55,6.57-31,17.27-4.94-1.66-9.38-.27-13.88,1.83-27.33,12.78-54.72,25.42-82.08,38.14-3.5,1.63-7,3.41-8.19,7.51-5.57-.34-10.32,1.82-15.23,4.16-74.3,35.46-148.85,70.41-223,106.22q-104,50.28-206.17,104.2c-34.66,18.39-69.44,36.55-104,55.21-11.16,6-18.91,6.53-25.18-6.88-7.78-16.64-16.25-33.19-26.47-48.42-8-12-6.67-20,4.39-27.65l2.22-2.6c17.55-4.42,25.41-20.27,38-30.89-8.22-2.43-13.39,2.41-18.94,6.06-11.39,3.86-23.24,6.86-34.13,11.87-9.79,4.5-14.76,2.25-19.57-6.89-34-64.65-69-128.79-102.44-193.72-33-64-64.49-128.85-96.72-193.28-5.36-10.73-6.2-19.59,8.14-23.29,12.6-6.88,23.69-15.63,34.56-26.82-8.82-3-13.3,3.28-19,5.44l-3,4.18c-1.15,1.08-2.31,2.17-3.45,3.27-7.05-6.39-12.38,1-18.49,2.2s-12.46,4.48-16.8-3c-4.16-7.17-4.13-13.69,3.74-18.5l4.05-3.25c9.63-2.15,15.29-9.08,20.77-16.57-4.39-4.55-6.78.4-9.85,1.46-6.06-5.38-11.72-1.24-17.66.38-10.82,3-19.65,2.6-23.92-10.93-3.62-11.45-9.69-22.15-14.65-33.19-28.16-62.74-56.72-125.31-84.13-188.36C158.4,685.55,148.51,673.71,150.6,658.33Z" fill="#d8d8d8"/>
      <path id="Path_84" data-name="Path 84" d="M537.59,1412l-.13.15h-.06Z" fill="#d8d8d8"/>
      <path id="Path_85" data-name="Path 85" d="M1139,1220.38c27.36-12.72,54.75-25.36,82.08-38.14,4.5-2.1,8.94-3.49,13.88-1.83q41.91,84.77,83.86,169.51c-39.6,11.37-66.62,22.92-96.46,46.54-.48.7-6.79,4.58-7.18,5.3-29.89-60.38-54.48-113.48-84.37-173.87C1132.06,1223.79,1135.51,1222,1139,1220.38Z" fill="#666"/>
      <path id="Path_86" data-name="Path 86" d="M1423,1579.49a38.052,38.052,0,0,0,4.76-9.08q23.68,48.1,47.31,96.26c17.19,35.07,42.48,67.89,36.13,111-1.28,8.7-2.88,14.13-11,17.83-20.32,9.22-40.6,18.57-60.42,28.76-8.72,4.49-12.61,2.64-16.76-5.76-30.28-61.32-58.63-118.63-89-179.93C1366.8,1622.8,1402.81,1610.79,1423,1579.49Z" fill="#666"/>
      <path id="Path_87" data-name="Path 87" d="M150.6,658.33q80.35-35.8,160.7-71.61c37.19-16.63,74.27-33.49,111.47-50.11,11.42-5.11,23.88-4.1,36-4.61,7-.3,12.34-1.67,14.58-9.09,2.57-8.52,9-12.89,16.93-16.6,113-52.67,227.27-102.44,339.12-157.38,113.18-55.58,226.32-111.27,337-171.61,43-23.45,86.17-46.62,129-70.44,9-5,12.73-3.88,17.72,5.39,14,26,28.93,51.59,45.71,76,15.14-19.57,12.74-37.61-2.14-57.16-11.67-15.35-20-33.26-29.56-50.12-4.22-7.39-8.27-10.17-17.21-5.14-260.38,146.63-529.33,276.3-802.36,397.9-10.09,4.5-19.26,9.3-22.53,20.69-1.49,5.17-4.66,6.71-9.89,5.74-17.17-3.17-32.41,2.55-47.69,9.48-82,37.16-163.83,74.58-246.36,110.48C162.69,628.15,154.24,640.45,150.6,658.33Z" fill="#666"/>
      <path id="Path_88" data-name="Path 88" d="M1359.75,191.76c-19.22,14.92-39,29.23-55.12,47.55l2.25,3.67c13.28-6.88,26.65-13.61,39.84-20.67,19.33-10.35,19.59-10.62,30.35,8.33,55.27,97.41,108.5,195.87,158.86,295.86,9.53,18.93,17.33,38.86,29.87,56.27,12-15.52,14.5-29.45,4.36-49.46-58.37-115.12-119.82-228.58-182.45-341.45-4.87-8.78-9.21-11.35-17.66-5.39C1366.93,188.67,1363.2,190,1359.75,191.76Z" fill="#666"/>
      <path id="Path_89" data-name="Path 89" d="M1566.22,588.25c-8.87,5.19-16.18,12.27-23.47,19.33-2.35,2.28-5.23,5.06-3.2,8.81,2.16,4,5.86,2.33,9.09,1.53,1.88-.47,3.64-1.41,5.53-1.8,24-5,24.68-4.09,35.17,18,34.56,72.68,67.66,146,98.75,220.17,12.49,29.82,22.23,60.76,37,89.67,13.81-16.64,13.22-33.35,5.06-53.43-40.1-98.62-83.43-195.79-129.14-292-6.77-14.26-13.93-18.1-27.63-11.47C1571.29,588,1568.62,587.87,1566.22,588.25Z" fill="#666"/>
      <path id="Path_90" data-name="Path 90" d="M537.4,1412.15c17.59-4.4,25.45-20.28,38.05-30.91-8.22-2.43-13.39,2.41-18.94,6.06C552.41,1397.28,542.93,1403.22,537.4,1412.15Z" fill="#a6a6a6"/>
      <path id="Path_91" data-name="Path 91" d="M311.79,982c12.6-6.88,23.69-15.63,34.56-26.82-8.82-3-13.3,3.28-19,5.44l-3,4.18c-1.15,1.08-2.31,2.17-3.45,3.27C317.55,972.5,311.2,975,311.79,982Z" fill="#a6a6a6"/>
      <path id="Path_92" data-name="Path 92" d="M293.33,945.51c9.66-2.14,15.33-9.08,20.81-16.58-4.39-4.55-6.78.4-9.85,1.46C300.4,935.26,294.47,938.67,293.33,945.51Z" fill="#a6a6a6"/>
      <path id="Path_93" data-name="Path 93" d="M289.32,948.75l4.19-3.36Z" fill="#a6a6a6"/>
      <path id="Path_94" data-name="Path 94" d="M535.24,1414.73l2.35-2.75Z" fill="#a6a6a6"/>
      <path id="Path_95" data-name="Path 95" d="M324.32,964.79l3-4.18Z" fill="#fefefe"/>
      <path id="Path_96" data-name="Path 96" d="M1220.34,1183a14.1,14.1,0,0,1,20,5.75l79.59,161.08c-12,2.39-22,6.61-33.28,10.94l-82.51-170.63Z" fill="#4d4d4d"/>
      <path id="Path_97" data-name="Path 97" d="M1503.61,1793.59h0l-.09.05-6.35,2.79-62.26-128.82-4.22-8.74L1403.2,1602h0l.33-.29.15-.13.17-.15c.45-.4.9-.79,1.33-1.19l.24-.21c.73-.67,1.45-1.34,2.16-2l.79-.76q.82-.8,1.62-1.62l.52-.53.19-.2.08-.09.86-.9.93-1,.29-.32c.7-.76,1.37-1.52,2-2.3L1416,1589c.71-.86,1.4-1.73,2.09-2.61.34-.43.67-.87,1-1.31s.65-.88,1-1.33h0l1-1.37.89-1.29a.706.706,0,0,1,.1-.14c.32-.48.64-1,1-1.45.19-.28.38-.54.55-.81a2.181,2.181,0,0,0,.13-.19l.18-.27.08-.13c.25-.39.49-.77.72-1.16h0c.24-.4.47-.81.69-1.21a.411.411,0,0,0,.05-.09c.16-.28.31-.56.44-.84h0v-.05h0c0-.1.1-.19.14-.29s.2-.39.29-.59h0c0-.1.09-.2.14-.3a.21.21,0,0,0,0-.07h0v-.08h0a.091.091,0,0,1,0-.06c.43-1,.82-2,1.16-3,.11-.33.22-.66.32-1h0l.73,1.47,38,77,4.26,8.63,35.6,72.05C1519.73,1753.82,1529,1780.32,1503.61,1793.59Z" fill="#4d4d4d"/>
      <path id="Path_98" data-name="Path 98" d="M1399.63,1511.1Z" fill="#4d4d4d"/>
      <g id="Layer_23" data-name="Layer 23">
        <text id="TO" transform="translate(1112.46 609.47) rotate(-25.017)" fill="#d50202" font-size="328" font-family="Nothing To Lose"><tspan x="0" y="0">TO</tspan></text>
        <text id="ENTER" transform="translate(652.72 1212.58) rotate(-23.199)" fill="#d50202" font-size="328" font-family="Nothing To Lose"><tspan x="0" y="0">ENTER</tspan></text>
        <text id="DARE" transform="translate(381.23 939.39) rotate(-25.017)" fill="#d50202" font-size="328" font-family="Nothing To Lose"><tspan x="0" y="0">DARE</tspan></text>
      </g>
    </g>
  </g>
</svg>
